<svg width="34" height="34" viewBox="0 0 34 34" fill="none" xmlns="http://www.w3.org/2000/svg">
<g clip-path="url(#clip0_1487_2729)">
<path d="M15.9382 7.18629C11.5938 7.67795 8.04268 11.1574 7.5138 15.5066C7.06046 19.2886 8.83602 22.7302 11.6694 24.659C12.4249 25.1507 12.8782 25.9827 12.8782 26.8904V27.6846H21.076V26.9282C21.076 26.0584 21.4916 25.1885 22.2471 24.6969C24.8538 22.995 26.5538 20.045 26.5538 16.6791C26.5916 11.0439 21.7182 6.54336 15.9382 7.18629Z" fill="#EE2C3C"/>
<path d="M12.916 31.8835C12.916 32.2239 13.0671 32.5265 13.3316 32.7534L14.5027 33.7367C14.6916 33.888 14.956 34.0014 15.2205 34.0014H18.8471C19.1116 34.0014 19.376 33.9258 19.5649 33.7367L20.736 32.7534C21.0005 32.5265 21.1516 32.2239 21.1516 31.8835V29.7656H12.916V31.8835Z" fill="#EE2C3C"/>
<path fill-rule="evenodd" clip-rule="evenodd" d="M17.0005 0C16.3734 0 15.8672 0.506785 15.8672 1.13459V4.16018C15.8672 4.78799 16.3734 5.29477 17.0005 5.29477C17.6276 5.29477 18.1339 4.78799 18.1339 4.16018V1.13459C18.1339 0.506785 17.6276 0 17.0005 0Z" fill="#EE2C3C"/>
<path fill-rule="evenodd" clip-rule="evenodd" d="M4.97994 3.47249C5.42194 3.03 6.13972 3.03 6.58172 3.47249L8.71994 5.61309C9.16194 6.05559 9.16194 6.77416 8.71994 7.21665C8.27794 7.65915 7.56016 7.65915 7.11816 7.21665L4.97994 5.07605C4.53794 4.63356 4.53794 3.91499 4.97994 3.47249Z" fill="#EE2C3C"/>
<path fill-rule="evenodd" clip-rule="evenodd" d="M29.0207 5.07605C29.4627 4.63356 29.4627 3.91499 29.0207 3.47249C28.5787 3.03 27.8609 3.03 27.4189 3.47249L25.2807 5.61309C24.8387 6.05559 24.8387 6.77416 25.2807 7.21665C25.7227 7.65915 26.4405 7.65915 26.8825 7.21665L29.0207 5.07605Z" fill="#EE2C3C"/>
<path fill-rule="evenodd" clip-rule="evenodd" d="M32.8665 16.6403C33.4936 16.6403 33.9998 16.1335 33.9998 15.5057C33.9998 14.8779 33.4936 14.3711 32.8665 14.3711H29.8443C29.2172 14.3711 28.7109 14.8779 28.7109 15.5057C28.7109 16.1335 29.2172 16.6403 29.8443 16.6403H32.8665Z" fill="#EE2C3C"/>
<path fill-rule="evenodd" clip-rule="evenodd" d="M0 15.5057C0 14.8779 0.506222 14.3711 1.13333 14.3711H4.15556C4.78267 14.3711 5.28889 14.8779 5.28889 15.5057C5.28889 16.1335 4.78267 16.6403 4.15556 16.6403H1.13333C0.506222 16.6403 0 16.1335 0 15.5057Z" fill="#EE2C3C"/>
</g>
<defs>
<clipPath id="clip0_1487_2729">
<rect width="34" height="34" fill="white"/>
</clipPath>
</defs>
</svg>
