<svg width="68" height="68" viewBox="0 0 68 68" fill="none" xmlns="http://www.w3.org/2000/svg">
<path d="M39.946 40.6609C38.3256 41.9553 36.2561 42.7335 33.998 42.7335C29.6442 42.7335 25.9823 39.8456 24.9174 35.9271H43.0786C43.0766 35.933 43.0746 35.9369 43.0746 35.9428H50.8234C50.9377 35.1686 51 34.3785 51 33.575C51 24.4203 43.3893 17 34 17C24.6106 17 17 24.4203 17 33.575C17 42.7296 24.6106 50.15 34 50.15C40.7884 50.15 46.6442 46.2706 49.3696 40.6628H39.946V40.6609ZM33.998 24.4144C37.9687 24.4144 41.3619 26.8175 42.7376 30.2138H25.2603C26.6341 26.8175 30.0272 24.4144 33.998 24.4144Z" fill="white"/>
</svg>
