<svg width="28" height="27" viewBox="0 0 28 27" fill="none" xmlns="http://www.w3.org/2000/svg">
<path d="M18.8967 19.2713C17.5623 20.3256 15.858 20.9594 13.9984 20.9594C10.4129 20.9594 7.39717 18.6073 6.52022 15.4158H21.4765C21.4748 15.4205 21.4732 15.4237 21.4732 15.4285H27.8546C27.9487 14.7979 28 14.1545 28 13.5C28 6.04367 21.7324 0 14 0C6.26753 0 0 6.04367 0 13.5C0 20.9562 6.26753 27 14 27C19.5904 27 24.4128 23.8403 26.6573 19.2729H18.8967V19.2713ZM13.9984 6.03889C17.2684 6.03889 20.0628 7.99618 21.1956 10.7623H6.80263C7.93392 7.99618 10.7283 6.03889 13.9984 6.03889Z" fill="#EE2C3C"/>
</svg>
