<svg xmlns="http://www.w3.org/2000/svg" width="24" height="24" viewBox="0 0 24 24">
    <g fill="none" fill-rule="evenodd">
        <path fill="#FFF" d="M-297-387H727V613H-297z"/>
        <path fill="#FFF" d="M-237-9h360v60h-360z"/>
        <path fill="#FFF" d="M-25-9h74v60h-74z"/>
        <g stroke="#666" stroke-linecap="round" stroke-width="1.5">
            <path d="M21 6v14.172A1.83 1.83 0 0 1 19.179 22H4.82A1.829 1.829 0 0 1 3 20.172v-7.715"/>
            <path d="M9 19.57v-4.857C9 13.772 9.841 13 10.87 13h2.26c1.028 0 1.87.772 1.87 1.713V22M9 2v3.84C9 7.577 7.65 9 6 9S3 7.577 3 5.84V2h6zM15 2v3.84C15 7.577 13.65 9 12 9S9 7.577 9 5.84V2h6zM21 2v3.84C21 7.577 19.65 9 17.999 9 16.35 9 15 7.577 15 5.84V2h6z"/>
        </g>
    </g>
</svg>
