<svg width="30" height="30" viewBox="0 0 30 30" fill="none" xmlns="http://www.w3.org/2000/svg">
<path d="M26.7172 21.5291V29.3914L3.20312 29.3914L3.20312 21.5291C3.20312 20.4497 4.05156 19.5562 5.11695 19.4887C5.15998 19.4867 5.20276 19.4844 5.24783 19.4844L24.6728 19.4844C24.7178 19.4844 24.7606 19.4867 24.8037 19.4887C25.869 19.5562 26.7175 20.4494 26.7175 21.5291H26.7172Z" fill="white"/>
<path d="M23.7848 26.5943C22.8673 26.5943 22.3922 26.0654 22.0105 25.6407C21.6678 25.2597 21.3971 24.9585 20.8443 24.9585C20.2915 24.9585 20.0216 25.2597 19.6793 25.6407C19.2976 26.0657 18.823 26.5943 17.9058 26.5943C16.9886 26.5943 16.5135 26.0654 16.1318 25.6407C15.7893 25.2597 15.5189 24.9585 14.9663 24.9585C14.4138 24.9585 14.1436 25.2597 13.8014 25.6407C13.4197 26.0657 12.9451 26.5943 12.0281 26.5943C11.1112 26.5943 10.636 26.0654 10.2543 25.6407C9.91186 25.2597 9.64144 24.9585 9.08889 24.9585C8.53633 24.9585 8.26617 25.2597 7.92369 25.6407C7.54199 26.0657 7.0671 26.5943 6.14991 26.5943C5.23272 26.5943 4.75783 26.0654 4.37614 25.6407C4.03391 25.2597 3.76324 24.9585 3.21094 24.9585V24.1406C4.12787 24.1406 4.60302 24.6695 4.98446 25.094C5.32694 25.4754 5.59736 25.7764 6.14966 25.7764C6.70196 25.7764 6.97238 25.4752 7.31486 25.094C7.69655 24.6695 8.17145 24.1406 9.08863 24.1406C10.0058 24.1406 10.4807 24.6695 10.8624 25.094C11.2049 25.4754 11.4753 25.7764 12.0279 25.7764C12.5804 25.7764 12.8503 25.4752 13.1928 25.0942C13.5745 24.6692 14.0491 24.1406 14.9663 24.1406C15.8835 24.1406 16.3584 24.6695 16.7401 25.094C17.0826 25.4754 17.353 25.7764 17.9056 25.7764C18.4581 25.7764 18.7283 25.4752 19.0705 25.094C19.4522 24.6695 19.9268 24.1406 20.844 24.1406C21.7612 24.1406 22.2366 24.6695 22.6186 25.094C22.9613 25.4754 23.232 25.7764 23.7848 25.7764C24.3376 25.7764 24.6083 25.4752 24.951 25.094C25.3327 24.6695 25.8078 24.1406 26.7253 24.1406V24.9585C26.1725 24.9585 25.9018 25.2597 25.5591 25.6407C25.1774 26.0657 24.7022 26.5943 23.7848 26.5943Z" fill="#EE2C3C"/>
<path d="M24.3592 13.4353V19.2568L6.57031 19.2568L6.57031 13.4353C6.57031 12.3559 7.41875 11.4624 8.48414 11.395C8.52717 11.3929 8.56995 11.3906 8.61502 11.3906L22.3145 11.3906C22.3596 11.3906 22.4024 11.3929 22.4454 11.395C23.5108 11.4624 24.3592 12.3557 24.3592 13.4353Z" fill="white"/>
<path d="M21.4008 16.9693C20.478 16.9693 19.9996 16.4414 19.6148 16.0172C19.2685 15.635 18.9951 15.3335 18.4349 15.3335C17.8747 15.3335 17.602 15.635 17.2562 16.0169C16.8717 16.4414 16.3935 16.9695 15.4712 16.9695C14.5489 16.9695 14.0702 16.4417 13.6857 16.0169C13.3397 15.6352 13.0662 15.3335 12.5062 15.3335C11.9463 15.3335 11.6736 15.635 11.3275 16.0169C10.943 16.4414 10.4648 16.9695 9.54256 16.9695C8.62028 16.9695 8.14157 16.4417 7.75733 16.0169C7.41128 15.6352 7.13781 15.3335 6.57812 15.3335V14.5156C7.50066 14.5156 7.97912 15.0435 8.36336 15.4677C8.7094 15.8494 8.98288 16.1514 9.54256 16.1514C10.1022 16.1514 10.3755 15.8494 10.7213 15.4677C11.1058 15.0435 11.584 14.5156 12.5062 14.5156C13.4285 14.5156 13.9072 15.0435 14.2917 15.4677C14.6378 15.8494 14.9112 16.1514 15.4712 16.1514C16.0311 16.1514 16.3041 15.8494 16.6499 15.4677C17.0344 15.0435 17.5126 14.5156 18.4349 14.5156C19.3571 14.5156 19.8364 15.0435 20.2209 15.4677C20.5672 15.8494 20.8406 16.1514 21.4008 16.1514C21.961 16.1514 22.2345 15.8494 22.5808 15.4677C22.9653 15.0435 23.444 14.5156 24.3668 14.5156V15.3335C23.8066 15.3335 23.5331 15.635 23.1868 16.0172C22.8023 16.4414 22.3236 16.9693 21.4008 16.9693Z" fill="#EE2C3C"/>
<path d="M12.0713 5.04688H9.69531V10.2139H12.0713V5.04688Z" fill="white"/>
<path d="M9.92969 3.18648C9.92969 4.16325 10.4153 4.65164 10.8897 4.65164C11.364 4.65164 11.8496 4.16325 11.8496 3.18648C11.8496 2.20971 11.3643 0.710938 10.8899 0.710938C10.4155 0.710938 9.92994 2.21022 9.92994 3.18648H9.92969Z" fill="#EE2C3C"/>
<path d="M16.3135 5.05469H13.9375V10.2217H16.3135V5.05469Z" fill="white"/>
<path d="M14.1719 3.18648C14.1719 4.16325 14.6575 4.65164 15.1318 4.65164C15.6062 4.65164 16.0918 4.16325 16.0918 3.18648C16.0918 2.20971 15.6062 0.710938 15.1318 0.710938C14.6575 0.710938 14.1719 2.21022 14.1719 3.18648Z" fill="#EE2C3C"/>
<path d="M20.5557 5.05469H18.1797V10.2217H20.5557V5.05469Z" fill="white"/>
<path d="M18.4141 3.18648C18.4141 4.16325 18.8996 4.65164 19.374 4.65164C19.8484 4.65164 20.334 4.16325 20.334 3.18648C20.334 2.20971 19.8487 0.710938 19.374 0.710938C18.8994 0.710938 18.4141 2.21022 18.4141 3.18648Z" fill="#EE2C3C"/>
</svg>
