<svg width="34" height="34" viewBox="0 0 34 34" fill="none" xmlns="http://www.w3.org/2000/svg">
<path d="M22.946 23.6609C21.3256 24.9553 19.2561 25.7335 16.998 25.7335C12.6442 25.7335 8.98228 22.8456 7.91741 18.9271H26.0786C26.0766 18.933 26.0746 18.9369 26.0746 18.9428H33.8234C33.9377 18.1686 34 17.3785 34 16.575C34 7.42029 26.3893 0 17 0C7.61057 0 0 7.42029 0 16.575C0 25.7296 7.61057 33.15 17 33.15C23.7884 33.15 29.6442 29.2706 32.3696 23.6628H22.946V23.6609ZM16.998 7.41442C20.9687 7.41442 24.3619 9.81754 25.7376 13.2138H8.26034C9.63405 9.81754 13.0272 7.41442 16.998 7.41442Z" fill="white"/>
</svg>
