<svg width="30" height="31" viewBox="0 0 30 31" fill="none" xmlns="http://www.w3.org/2000/svg">
<path d="M9.39365 12.625C12.5437 13.125 14.1437 15.075 14.1437 17.65C14.1437 20.6 11.8687 23.3 6.89365 23.3C4.44365 23.3 1.91865 22.625 0.218652 21.425L1.79365 18.325C3.11865 19.325 4.96865 19.9 6.79365 19.9C8.81865 19.9 10.0687 19.075 10.0687 17.65C10.0687 16.325 9.09365 15.5 6.79365 15.5H4.94365V12.825L8.54365 8.75H1.09365V5.5H13.3437V8.125L9.39365 12.625ZM22.2636 23.3C17.9636 23.3 14.7636 20.025 14.7636 14.25C14.7636 8.475 17.9636 5.2 22.2636 5.2C26.5886 5.2 29.7636 8.475 29.7636 14.25C29.7636 20.025 26.5886 23.3 22.2636 23.3ZM22.2636 19.875C24.2886 19.875 25.6886 18.225 25.6886 14.25C25.6886 10.275 24.2886 8.625 22.2636 8.625C20.2636 8.625 18.8636 10.275 18.8636 14.25C18.8636 18.225 20.2636 19.875 22.2636 19.875Z" fill="white"/>
<mask id="path-2-outside-1_1587_6740" maskUnits="userSpaceOnUse" x="7" y="22" width="16" height="9" fill="black">
<rect fill="white" x="7" y="22" width="16" height="9"/>
<path d="M10.4011 30V24.32H8.16109V23H14.2611V24.32H12.0211V30H10.4011ZM19.4327 23H21.0527V30H19.4327V23ZM16.2527 30H14.6327V23H16.2527V30ZM19.5527 27.13H16.1327V25.76H19.5527V27.13Z"/>
</mask>
<path d="M10.4011 30V24.32H8.16109V23H14.2611V24.32H12.0211V30H10.4011ZM19.4327 23H21.0527V30H19.4327V23ZM16.2527 30H14.6327V23H16.2527V30ZM19.5527 27.13H16.1327V25.76H19.5527V27.13Z" fill="white"/>
<path d="M10.4011 30H9.40109V31H10.4011V30ZM10.4011 24.32H11.4011V23.32H10.4011V24.32ZM8.16109 24.32H7.16109V25.32H8.16109V24.32ZM8.16109 23V22H7.16109V23H8.16109ZM14.2611 23H15.2611V22H14.2611V23ZM14.2611 24.32V25.32H15.2611V24.32H14.2611ZM12.0211 24.32V23.32H11.0211V24.32H12.0211ZM12.0211 30V31H13.0211V30H12.0211ZM11.4011 30V24.32H9.40109V30H11.4011ZM10.4011 23.32H8.16109V25.32H10.4011V23.32ZM9.16109 24.32V23H7.16109V24.32H9.16109ZM8.16109 24H14.2611V22H8.16109V24ZM13.2611 23V24.32H15.2611V23H13.2611ZM14.2611 23.32H12.0211V25.32H14.2611V23.32ZM11.0211 24.32V30H13.0211V24.32H11.0211ZM12.0211 29H10.4011V31H12.0211V29ZM19.4327 23V22H18.4327V23H19.4327ZM21.0527 23H22.0527V22H21.0527V23ZM21.0527 30V31H22.0527V30H21.0527ZM19.4327 30H18.4327V31H19.4327V30ZM16.2527 30V31H17.2527V30H16.2527ZM14.6327 30H13.6327V31H14.6327V30ZM14.6327 23V22H13.6327V23H14.6327ZM16.2527 23H17.2527V22H16.2527V23ZM19.5527 27.13V28.13H20.5527V27.13H19.5527ZM16.1327 27.13H15.1327V28.13H16.1327V27.13ZM16.1327 25.76V24.76H15.1327V25.76H16.1327ZM19.5527 25.76H20.5527V24.76H19.5527V25.76ZM19.4327 24H21.0527V22H19.4327V24ZM20.0527 23V30H22.0527V23H20.0527ZM21.0527 29H19.4327V31H21.0527V29ZM20.4327 30V23H18.4327V30H20.4327ZM16.2527 29H14.6327V31H16.2527V29ZM15.6327 30V23H13.6327V30H15.6327ZM14.6327 24H16.2527V22H14.6327V24ZM15.2527 23V30H17.2527V23H15.2527ZM19.5527 26.13H16.1327V28.13H19.5527V26.13ZM17.1327 27.13V25.76H15.1327V27.13H17.1327ZM16.1327 26.76H19.5527V24.76H16.1327V26.76ZM18.5527 25.76V27.13H20.5527V25.76H18.5527Z" fill="black" mask="url(#path-2-outside-1_1587_6740)"/>
</svg>
