<svg width="143" height="20" viewBox="0 0 143 20" fill="none" xmlns="http://www.w3.org/2000/svg">
<path d="M76.3276 9.99997L66.4765 19.8511L56.6254 9.99997L66.4765 0.148864L76.3276 9.99997ZM86.4765 19.8511L76.6254 9.99997L86.4765 0.148864L96.3276 9.99997L86.4765 19.8511Z" fill="#EE2C3C" stroke="#EE2C3C" stroke-width="0.210526"/>
<path d="M0.898438 0H56.4772V19.9999H0.898438V0Z" fill="#EE2C3C"/>
<path d="M15.632 11.2654C15.632 11.8555 15.4929 12.4047 15.2147 12.9132C14.9412 13.4169 14.5599 13.8175 14.0706 14.1149C13.586 14.4076 13.0416 14.5539 12.4371 14.5539C11.6792 14.5539 11.0196 14.2876 10.4583 13.7551V16.0578C10.4583 16.3312 10.4751 16.5351 10.5087 16.6694C10.5471 16.8085 10.6286 16.9117 10.7533 16.9788C10.8829 17.0508 11.0795 17.0868 11.3434 17.0868H11.7392V17.7488H7.55845V17.0868C7.88465 17.0868 8.11971 17.058 8.26363 17.0004C8.40754 16.9476 8.49869 16.8541 8.53706 16.7198C8.58024 16.5855 8.60182 16.3648 8.60182 16.0578V10.4235C8.60182 10.1453 8.58024 9.94382 8.53706 9.81909C8.49869 9.69437 8.40754 9.60562 8.26363 9.55285C8.12451 9.49529 7.88945 9.4665 7.55845 9.4665V8.8045L10.3576 8.18567C10.4151 8.37755 10.4487 8.68217 10.4583 9.09952C10.7749 8.78291 11.1011 8.55265 11.4369 8.40873C11.7775 8.26002 12.1685 8.18567 12.6098 8.18567C13.0895 8.18567 13.5189 8.27202 13.8979 8.44471C14.2768 8.61741 14.5934 8.85007 14.8477 9.1427C15.1019 9.43052 15.2962 9.76153 15.4305 10.1357C15.5649 10.5051 15.632 10.8817 15.632 11.2654ZM13.646 11.1935C13.646 9.72075 13.1303 8.98439 12.0989 8.98439C11.7631 8.98439 11.4537 9.08273 11.1707 9.27941C10.8925 9.4713 10.655 9.70636 10.4583 9.98459V12.8269C10.6454 13.1099 10.8877 13.3354 11.1851 13.5033C11.4873 13.6712 11.7967 13.7551 12.1133 13.7551C13.1351 13.7551 13.646 12.9013 13.646 11.1935ZM24.3967 14.2732C24.2576 14.2828 24.0153 14.2972 23.6699 14.3164C23.3245 14.3404 22.936 14.3716 22.5042 14.41C22.0773 14.4531 21.7343 14.5011 21.4752 14.5539V13.5033C20.8564 14.2133 20.1152 14.5683 19.2518 14.5683C18.6233 14.5683 18.158 14.4339 17.8558 14.1653C17.5536 13.8967 17.3665 13.6016 17.2945 13.2802C17.2226 12.954 17.1866 12.6062 17.1866 12.2368V10.1141C17.1866 9.83108 17.1698 9.62481 17.1362 9.49529C17.1026 9.36097 17.0139 9.26023 16.87 9.19307C16.7261 9.12111 16.4886 9.08513 16.1576 9.08513V8.42313H19.0431V12.388C19.0431 13.2035 19.3573 13.6112 19.9857 13.6112C20.3455 13.6112 20.6501 13.4841 20.8996 13.2299C21.149 12.9708 21.3409 12.7238 21.4752 12.4887V10.1141C21.4752 9.81669 21.456 9.60322 21.4177 9.4737C21.3841 9.34418 21.2929 9.24823 21.1442 9.18587C20.9955 9.11871 20.7485 9.08513 20.4031 9.08513V8.42313H23.3317V12.7549C23.3317 12.9804 23.3533 13.1483 23.3965 13.2586C23.4397 13.369 23.538 13.4553 23.6915 13.5177C23.845 13.5752 24.0801 13.6064 24.3967 13.6112V14.2732ZM30.8011 12.3736L30.6069 14.3164H24.9654V13.7839L28.3834 9.08513H26.8219C26.6252 9.08513 26.4525 9.14509 26.3038 9.26502C26.1551 9.38495 26.0184 9.67278 25.8937 10.1285H25.2173L25.3468 8.42313H30.7148V8.99878L27.3256 13.6544H28.6928C28.9135 13.6544 29.0934 13.6328 29.2325 13.5896C29.3716 13.5465 29.5155 13.4361 29.6642 13.2586C29.8177 13.0763 29.9664 12.7813 30.1104 12.3736H30.8011ZM37.7309 12.3736L37.5366 14.3164H31.8952V13.7839L35.3131 9.08513H33.7517C33.555 9.08513 33.3823 9.14509 33.2336 9.26502C33.0849 9.38495 32.9481 9.67278 32.8234 10.1285H32.147L32.2766 8.42313H37.6445V8.99878L34.2554 13.6544H35.6226C35.8432 13.6544 36.0231 13.6328 36.1622 13.5896C36.3013 13.5465 36.4453 13.4361 36.594 13.2586C36.7475 13.0763 36.8962 12.7813 37.0401 12.3736H37.7309ZM42.5955 14.3164H38.4579V13.6544H38.7674C39.0456 13.6544 39.2471 13.616 39.3718 13.5393C39.5013 13.4625 39.5805 13.3546 39.6093 13.2155C39.638 13.0763 39.6524 12.8725 39.6524 12.6038V6.47309C39.6524 6.1277 39.5709 5.90703 39.4078 5.81109C39.2495 5.71514 38.9329 5.66717 38.4579 5.66717V5.00517L41.5089 4.38634V12.6038C41.5089 12.8725 41.5209 13.0763 41.5449 13.2155C41.5737 13.3498 41.6504 13.4577 41.7752 13.5393C41.9047 13.616 42.1086 13.6544 42.3868 13.6544H42.5955V14.3164ZM49.59 11.1503H45.1646C45.1694 11.2414 45.1814 11.4357 45.2006 11.7331C45.2246 12.0306 45.2918 12.3352 45.4021 12.647C45.5172 12.9588 45.7115 13.2227 45.9849 13.4385C46.2632 13.6496 46.635 13.7551 47.1003 13.7551C47.3545 13.7551 47.6615 13.6904 48.0213 13.5609C48.3811 13.4313 48.6929 13.1819 48.9568 12.8125L49.518 13.1939C48.952 14.1005 48.0525 14.5539 46.8196 14.5539C46.268 14.5539 45.7643 14.4747 45.3085 14.3164C44.8576 14.1581 44.4738 13.9374 44.1572 13.6544C43.8406 13.3714 43.5984 13.038 43.4305 12.6542C43.2626 12.2704 43.1786 11.8579 43.1786 11.4165C43.1786 10.8361 43.3177 10.2988 43.596 9.8047C43.879 9.3106 44.282 8.91723 44.8048 8.62461C45.3277 8.33198 45.925 8.18567 46.5966 8.18567C47.2538 8.18567 47.8079 8.32718 48.2588 8.61021C48.7145 8.89324 49.0503 9.26023 49.2662 9.71116C49.4821 10.1621 49.59 10.6418 49.59 11.1503ZM47.8055 10.4883C47.8055 9.39455 47.3737 8.84767 46.5102 8.84767C46.0929 8.84767 45.7715 8.99878 45.546 9.301C45.3253 9.60322 45.203 9.99898 45.179 10.4883H47.8055Z" fill="white"/>
<path d="M96.574 0.105263H142.89V19.8947H96.574V0.105263Z" stroke="#EE2C3C" stroke-width="0.210526"/>
<path d="M104.199 14.5539H103.918V6.66737C103.918 6.09172 103.901 5.71994 103.868 5.55204C103.839 5.38414 103.76 5.25941 103.63 5.17786C103.506 5.09631 103.285 5.05554 102.968 5.05554V4.72453C103.251 4.72453 103.592 4.69095 103.99 4.62379C104.388 4.55663 104.659 4.48947 104.803 4.42231H104.954V9.08513C105.29 8.78291 105.631 8.55745 105.976 8.40873C106.322 8.26002 106.672 8.18567 107.027 8.18567C107.876 8.18567 108.571 8.48069 109.113 9.07074C109.656 9.66079 109.927 10.4139 109.927 11.3302C109.927 12.2512 109.648 13.0188 109.092 13.6328C108.535 14.2468 107.813 14.5539 106.926 14.5539C106.489 14.5539 106.106 14.4627 105.775 14.2804C105.448 14.0981 105.175 13.8271 104.954 13.4673C104.643 13.7791 104.391 14.1413 104.199 14.5539ZM104.954 9.50968V11.8195C104.954 12.4143 104.993 12.8437 105.069 13.1075C105.151 13.3666 105.343 13.616 105.645 13.8559C105.947 14.0957 106.3 14.2157 106.703 14.2157C107.322 14.2157 107.813 13.9614 108.178 13.4529C108.547 12.9444 108.732 12.2129 108.732 11.2582C108.732 10.3804 108.559 9.71355 108.214 9.25783C107.873 8.7973 107.418 8.56704 106.847 8.56704C106.521 8.56704 106.199 8.64619 105.883 8.8045C105.571 8.95801 105.261 9.19307 104.954 9.50968ZM110.718 11.359C110.718 10.4571 111.021 9.70396 111.625 9.09952C112.229 8.49029 112.973 8.18567 113.856 8.18567C114.743 8.18567 115.489 8.49029 116.094 9.09952C116.698 9.70876 117 10.4619 117 11.359C117 12.352 116.693 13.1339 116.079 13.7048C115.465 14.2708 114.724 14.5539 113.856 14.5539C112.987 14.5539 112.246 14.266 111.632 13.6904C111.023 13.1099 110.718 12.3328 110.718 11.359ZM111.913 11.395C111.913 12.4407 112.083 13.1747 112.424 13.5968C112.764 14.0142 113.242 14.2229 113.856 14.2229C114.484 14.2229 114.964 14.0142 115.295 13.5968C115.631 13.1747 115.799 12.4407 115.799 11.395C115.799 10.3588 115.633 9.62001 115.302 9.17867C114.971 8.73734 114.489 8.51667 113.856 8.51667C113.227 8.51667 112.745 8.73734 112.409 9.17867C112.078 9.61521 111.913 10.354 111.913 11.395ZM123.736 13.2371H124.002C123.959 14.0574 123.556 14.4675 122.793 14.4675C122.467 14.4675 122.208 14.3812 122.016 14.2085C121.829 14.0358 121.707 13.7791 121.649 13.4385C121.169 13.7791 120.73 14.0358 120.332 14.2085C119.939 14.3812 119.586 14.4675 119.274 14.4675C118.876 14.4675 118.533 14.3524 118.245 14.1221C117.958 13.8919 117.814 13.5872 117.814 13.2083C117.814 12.7142 118.054 12.2824 118.533 11.913C119.018 11.5437 119.685 11.1839 120.534 10.8337L121.649 10.3804V10.0925C121.649 9.68477 121.623 9.38975 121.57 9.20746C121.517 9.02517 121.38 8.86206 121.16 8.71815C120.939 8.57424 120.649 8.50228 120.289 8.50228C119.569 8.50228 119.169 8.74213 119.087 9.22185C119.011 9.71116 118.809 9.95581 118.483 9.95581C118.19 9.95581 118.044 9.81669 118.044 9.53846C118.044 9.26502 118.238 8.9724 118.627 8.66058C119.015 8.34397 119.62 8.18567 120.44 8.18567C121.049 8.18567 121.522 8.28161 121.858 8.4735C122.193 8.66538 122.414 8.88365 122.52 9.1283C122.63 9.37296 122.685 9.74713 122.685 10.2508V12.6326C122.685 13.1891 122.714 13.5465 122.771 13.7048C122.829 13.8631 122.954 13.9422 123.146 13.9422C123.462 13.9422 123.659 13.7072 123.736 13.2371ZM121.649 10.7186L120.865 11.0352C119.627 11.5389 119.008 12.1721 119.008 12.9348C119.008 13.2371 119.087 13.4817 119.246 13.6688C119.404 13.8511 119.61 13.9422 119.864 13.9422C120.09 13.9422 120.351 13.8679 120.649 13.7192C120.946 13.5705 121.28 13.3474 121.649 13.05V10.7186ZM126.312 9.68957C126.475 9.26262 126.739 8.90524 127.104 8.61741C127.473 8.32958 127.833 8.18567 128.183 8.18567C128.5 8.18567 128.749 8.28401 128.931 8.48069C129.114 8.67737 129.205 8.87885 129.205 9.08513C129.205 9.22425 129.157 9.34418 129.061 9.44492C128.97 9.54566 128.857 9.59602 128.723 9.59602C128.483 9.59602 128.3 9.41853 128.176 9.06354C128.089 8.82369 127.96 8.70376 127.787 8.70376C127.581 8.70376 127.334 8.84527 127.046 9.1283C126.758 9.40654 126.574 9.69676 126.492 9.99898C126.41 10.3012 126.37 10.7162 126.37 11.2438V12.2944C126.37 12.9228 126.377 13.3186 126.391 13.4817C126.41 13.6448 126.48 13.7695 126.6 13.8559C126.72 13.9422 126.933 13.9854 127.24 13.9854H127.442V14.3164H124.312V13.9854H124.463C124.751 13.9854 124.954 13.947 125.074 13.8703C125.199 13.7887 125.273 13.676 125.297 13.5321C125.321 13.3882 125.333 12.9756 125.333 12.2944V10.6322C125.333 9.99898 125.324 9.60322 125.305 9.44492C125.29 9.28181 125.223 9.15709 125.103 9.07074C124.983 8.97959 124.77 8.93402 124.463 8.93402H124.312V8.61021C124.763 8.55745 125.353 8.41593 126.082 8.18567C126.221 8.56464 126.298 9.06594 126.312 9.68957ZM134.336 9.04915V6.74653C134.336 6.1181 134.326 5.72234 134.307 5.55924C134.292 5.39613 134.225 5.27141 134.105 5.18506C133.985 5.09871 133.772 5.05554 133.465 5.05554H133.314V4.72453C133.894 4.71014 134.53 4.6094 135.221 4.42231H135.372V12.3448C135.372 13.0308 135.384 13.4481 135.408 13.5968C135.432 13.7455 135.506 13.8559 135.631 13.9278C135.76 13.9998 135.998 14.0358 136.343 14.0358V14.3668C135.648 14.3812 135.029 14.4435 134.487 14.5539C134.429 14.3284 134.4 13.9734 134.4 13.4889C134.045 13.8439 133.678 14.1101 133.299 14.2876C132.925 14.4651 132.537 14.5539 132.134 14.5539C131.371 14.5539 130.711 14.2468 130.155 13.6328C129.603 13.0188 129.327 12.2752 129.327 11.4021C129.327 10.4427 129.61 9.66798 130.176 9.07793C130.743 8.48309 131.417 8.18567 132.198 8.18567C132.597 8.18567 132.973 8.25762 133.328 8.40154C133.683 8.54545 134.019 8.76132 134.336 9.04915ZM134.336 9.4665C134.019 9.19307 133.7 8.98919 133.379 8.85487C133.062 8.71575 132.743 8.64619 132.422 8.64619C131.879 8.64619 131.426 8.85487 131.062 9.27222C130.702 9.68957 130.522 10.3708 130.522 11.3158C130.522 12.2752 130.707 12.9828 131.076 13.4385C131.45 13.8943 131.911 14.1221 132.457 14.1221C132.822 14.1221 133.16 14.0358 133.472 13.8631C133.784 13.6904 134.072 13.4313 134.336 13.0859V9.4665Z" fill="#EE2C3C"/>
</svg>
