<svg width="56" height="20" viewBox="0 0 56 20" fill="none" xmlns="http://www.w3.org/2000/svg">
<path d="M0.21875 0H55.7743V20H0.21875V0Z" fill="#EE2C3C"/>
<path d="M15.1098 11.2654C15.1098 11.8555 14.9707 12.4047 14.6925 12.9132C14.4191 13.4169 14.0377 13.8175 13.5484 14.1149C13.0639 14.4076 12.5194 14.5539 11.9149 14.5539C11.157 14.5539 10.4974 14.2876 9.93612 13.7551V16.0578C9.93612 16.3312 9.95291 16.5351 9.98649 16.6694C10.0249 16.8085 10.1064 16.9117 10.2311 16.9788C10.3607 17.0508 10.5574 17.0868 10.8212 17.0868H11.217V17.7488H7.03625V17.0868C7.36245 17.0868 7.59751 17.058 7.74143 17.0004C7.88534 16.9476 7.97649 16.8541 8.01487 16.7198C8.05804 16.5855 8.07963 16.3648 8.07963 16.0578V10.4235C8.07963 10.1453 8.05804 9.94381 8.01487 9.81908C7.97649 9.69435 7.88534 9.60561 7.74143 9.55284C7.60231 9.49527 7.36725 9.46649 7.03625 9.46649V8.80448L9.83538 8.18565C9.89295 8.37754 9.92653 8.68215 9.93612 9.09951C10.2527 8.7829 10.5789 8.55263 10.9147 8.40872C11.2553 8.26001 11.6463 8.18565 12.0876 8.18565C12.5674 8.18565 12.9967 8.272 13.3757 8.4447C13.7547 8.61739 14.0713 8.85006 14.3255 9.14268C14.5798 9.43051 14.774 9.76151 14.9084 10.1357C15.0427 10.5051 15.1098 10.8816 15.1098 11.2654ZM13.1238 11.1935C13.1238 9.72074 12.6081 8.98438 11.5767 8.98438C11.2409 8.98438 10.9315 9.08272 10.6485 9.2794C10.3703 9.47129 10.1328 9.70635 9.93612 9.98458V12.8269C10.1232 13.1099 10.3655 13.3354 10.6629 13.5033C10.9651 13.6712 11.2745 13.7551 11.5911 13.7551C12.6129 13.7551 13.1238 12.9012 13.1238 11.1935ZM23.8745 14.2732C23.7354 14.2828 23.4932 14.2972 23.1478 14.3164C22.8024 14.3404 22.4138 14.3716 21.9821 14.41C21.5551 14.4531 21.2121 14.5011 20.9531 14.5539V13.5033C20.3342 14.2133 19.5931 14.5683 18.7296 14.5683C18.1012 14.5683 17.6358 14.4339 17.3336 14.1653C17.0314 13.8967 16.8443 13.6016 16.7723 13.2802C16.7004 12.954 16.6644 12.6062 16.6644 12.2368V10.1141C16.6644 9.83107 16.6476 9.62479 16.614 9.49527C16.5805 9.36095 16.4917 9.26021 16.3478 9.19305C16.2039 9.12109 15.9664 9.08512 15.6354 9.08512V8.42311H18.5209V12.388C18.5209 13.2035 18.8351 13.6112 19.4635 13.6112C19.8233 13.6112 20.128 13.4841 20.3774 13.2299C20.6269 12.9708 20.8187 12.7238 20.9531 12.4887V10.1141C20.9531 9.81668 20.9339 9.60321 20.8955 9.47368C20.8619 9.34416 20.7708 9.24822 20.6221 9.18586C20.4733 9.1187 20.2263 9.08512 19.8809 9.08512V8.42311H22.8096V12.7549C22.8096 12.9804 22.8311 13.1483 22.8743 13.2586C22.9175 13.369 23.0158 13.4553 23.1693 13.5177C23.3229 13.5752 23.5579 13.6064 23.8745 13.6112V14.2732ZM30.279 12.3736L30.0847 14.3164H24.4433V13.7839L27.8612 9.08512H26.2998C26.1031 9.08512 25.9304 9.14508 25.7817 9.26501C25.633 9.38494 25.4963 9.67277 25.3715 10.1285H24.6951L24.8247 8.42311H30.1927V8.99877L26.8035 13.6544H28.1707C28.3913 13.6544 28.5712 13.6328 28.7103 13.5896C28.8495 13.5465 28.9934 13.4361 29.1421 13.2586C29.2956 13.0763 29.4443 12.7813 29.5882 12.3736H30.279ZM37.2088 12.3736L37.0145 14.3164H31.373V13.7839L34.791 9.08512H33.2295C33.0329 9.08512 32.8602 9.14508 32.7114 9.26501C32.5627 9.38494 32.426 9.67277 32.3013 10.1285H31.6249L31.7544 8.42311H37.1224V8.99877L33.7332 13.6544H35.1004C35.3211 13.6544 35.501 13.6328 35.6401 13.5896C35.7792 13.5465 35.9231 13.4361 36.0719 13.2586C36.2254 13.0763 36.3741 12.7813 36.518 12.3736H37.2088ZM42.0734 14.3164H37.9358V13.6544H38.2452C38.5235 13.6544 38.725 13.616 38.8497 13.5393C38.9792 13.4625 39.0584 13.3546 39.0871 13.2155C39.1159 13.0763 39.1303 12.8725 39.1303 12.6038V6.47307C39.1303 6.12767 39.0488 5.907 38.8857 5.81106C38.7274 5.71512 38.4108 5.66715 37.9358 5.66715V5.00514L40.9868 4.38631V12.6038C40.9868 12.8725 40.9988 13.0763 41.0228 13.2155C41.0516 13.3498 41.1283 13.4577 41.2531 13.5393C41.3826 13.616 41.5865 13.6544 41.8647 13.6544H42.0734V14.3164ZM49.0679 11.1503H44.6425C44.6473 11.2414 44.6593 11.4357 44.6785 11.7331C44.7025 12.0306 44.7697 12.3352 44.88 12.647C44.9951 12.9588 45.1894 13.2227 45.4628 13.4385C45.7411 13.6496 46.1129 13.7551 46.5782 13.7551C46.8324 13.7551 47.1395 13.6904 47.4992 13.5609C47.859 13.4313 48.1708 13.1819 48.4347 12.8125L48.9959 13.1939C48.4299 14.1005 47.5304 14.5539 46.2976 14.5539C45.7459 14.5539 45.2422 14.4747 44.7865 14.3164C44.3355 14.1581 43.9517 13.9374 43.6351 13.6544C43.3185 13.3714 43.0763 13.038 42.9084 12.6542C42.7405 12.2704 42.6565 11.8579 42.6565 11.4165C42.6565 10.8361 42.7956 10.2988 43.0739 9.80469C43.3569 9.31058 43.7599 8.91722 44.2828 8.62459C44.8056 8.33196 45.4029 8.18565 46.0745 8.18565C46.7317 8.18565 47.2858 8.32717 47.7367 8.6102C48.1924 8.89323 48.5282 9.26021 48.7441 9.71114C48.96 10.1621 49.0679 10.6418 49.0679 11.1503ZM47.2834 10.4883C47.2834 9.39453 46.8516 8.84766 45.9881 8.84766C45.5708 8.84766 45.2494 8.99877 45.0239 9.30099C44.8032 9.60321 44.6809 9.99897 44.6569 10.4883H47.2834Z" fill="white"/>
</svg>
