<svg width="118" height="20" viewBox="0 0 118 20" fill="none" xmlns="http://www.w3.org/2000/svg">
<path d="M0.125 0H55.7039V20H0.125V0Z" fill="#EE2C3C"/>
<path d="M14.8586 11.2654C14.8586 11.8555 14.7194 12.4047 14.4412 12.9132C14.1678 13.4169 13.7864 13.8175 13.2971 14.1149C12.8126 14.4076 12.2681 14.5539 11.6637 14.5539C10.9057 14.5539 10.2461 14.2876 9.68483 13.7551V16.0578C9.68483 16.3312 9.70162 16.5351 9.7352 16.6694C9.77358 16.8085 9.85513 16.9117 9.97985 16.9788C10.1094 17.0508 10.3061 17.0868 10.5699 17.0868H10.9657V17.7488H6.78495V17.0868C7.11116 17.0868 7.34622 17.058 7.49013 17.0004C7.63405 16.9476 7.72519 16.8541 7.76357 16.7198C7.80675 16.5855 7.82833 16.3648 7.82833 16.0578V10.4235C7.82833 10.1453 7.80675 9.94381 7.76357 9.81908C7.72519 9.69435 7.63405 9.60561 7.49013 9.55284C7.35102 9.49527 7.11596 9.46649 6.78495 9.46649V8.80448L9.58409 8.18565C9.64166 8.37754 9.67524 8.68216 9.68483 9.09951C10.0014 8.7829 10.3276 8.55263 10.6634 8.40872C11.004 8.26001 11.395 8.18565 11.8364 8.18565C12.3161 8.18565 12.7454 8.272 13.1244 8.4447C13.5034 8.61739 13.82 8.85006 14.0742 9.14268C14.3285 9.43051 14.5228 9.76151 14.6571 10.1357C14.7914 10.5051 14.8586 10.8816 14.8586 11.2654ZM12.8725 11.1935C12.8725 9.72074 12.3568 8.98438 11.3255 8.98438C10.9897 8.98438 10.6802 9.08272 10.3972 9.2794C10.119 9.47129 9.88151 9.70635 9.68483 9.98458V12.8269C9.87192 13.1099 10.1142 13.3354 10.4116 13.5033C10.7138 13.6712 11.0232 13.7551 11.3398 13.7551C12.3616 13.7551 12.8725 12.9012 12.8725 11.1935ZM23.6232 14.2732C23.4841 14.2828 23.2419 14.2972 22.8965 14.3164C22.5511 14.3404 22.1625 14.3716 21.7308 14.41C21.3038 14.4531 20.9608 14.5011 20.7018 14.5539V13.5033C20.0829 14.2133 19.3418 14.5683 18.4783 14.5683C17.8499 14.5683 17.3845 14.4339 17.0823 14.1653C16.7801 13.8967 16.593 13.6016 16.5211 13.2802C16.4491 12.954 16.4131 12.6062 16.4131 12.2368V10.1141C16.4131 9.83107 16.3963 9.6248 16.3627 9.49527C16.3292 9.36095 16.2404 9.26021 16.0965 9.19305C15.9526 9.12109 15.7151 9.08512 15.3841 9.08512V8.42311H18.2696V12.388C18.2696 13.2035 18.5838 13.6112 19.2123 13.6112C19.572 13.6112 19.8767 13.4841 20.1261 13.2299C20.3756 12.9708 20.5674 12.7238 20.7018 12.4887V10.1141C20.7018 9.81668 20.6826 9.60321 20.6442 9.47369C20.6106 9.34416 20.5195 9.24822 20.3708 9.18586C20.2221 9.1187 19.975 9.08512 19.6296 9.08512V8.42311H22.5583V12.7549C22.5583 12.9804 22.5799 13.1483 22.623 13.2586C22.6662 13.369 22.7645 13.4553 22.9181 13.5177C23.0716 13.5752 23.3066 13.6064 23.6232 13.6112V14.2732ZM30.0277 12.3736L29.8334 14.3164H24.192V13.7839L27.61 9.08512H26.0485C25.8518 9.08512 25.6791 9.14508 25.5304 9.26501C25.3817 9.38494 25.245 9.67277 25.1202 10.1285H24.4438L24.5734 8.42311H29.9414V8.99877L26.5522 13.6544H27.9194C28.14 13.6544 28.3199 13.6328 28.459 13.5896C28.5982 13.5465 28.7421 13.4361 28.8908 13.2586C29.0443 13.0763 29.193 12.7813 29.3369 12.3736H30.0277ZM36.9575 12.3736L36.7632 14.3164H31.1218V13.7839L34.5397 9.08512H32.9782C32.7816 9.08512 32.6089 9.14508 32.4602 9.26501C32.3114 9.38494 32.1747 9.67277 32.05 10.1285H31.3736L31.5031 8.42311H36.8711V8.99877L33.4819 13.6544H34.8491C35.0698 13.6544 35.2497 13.6328 35.3888 13.5896C35.5279 13.5465 35.6718 13.4361 35.8206 13.2586C35.9741 13.0763 36.1228 12.7813 36.2667 12.3736H36.9575ZM41.8221 14.3164H37.6845V13.6544H37.994C38.2722 13.6544 38.4737 13.616 38.5984 13.5393C38.7279 13.4625 38.8071 13.3546 38.8359 13.2155C38.8646 13.0763 38.879 12.8725 38.879 12.6038V6.47307C38.879 6.12767 38.7975 5.90701 38.6344 5.81106C38.4761 5.71512 38.1595 5.66715 37.6845 5.66715V5.00514L40.7355 4.38631V12.6038C40.7355 12.8725 40.7475 13.0763 40.7715 13.2155C40.8003 13.3498 40.877 13.4577 41.0018 13.5393C41.1313 13.616 41.3352 13.6544 41.6134 13.6544H41.8221V14.3164ZM48.8166 11.1503H44.3912C44.396 11.2414 44.408 11.4357 44.4272 11.7331C44.4512 12.0306 44.5184 12.3352 44.6287 12.647C44.7438 12.9588 44.9381 13.2227 45.2116 13.4385C45.4898 13.6496 45.8616 13.7551 46.3269 13.7551C46.5811 13.7551 46.8882 13.6904 47.2479 13.5609C47.6077 13.4313 47.9195 13.1819 48.1834 12.8125L48.7447 13.1939C48.1786 14.1005 47.2791 14.5539 46.0463 14.5539C45.4946 14.5539 44.9909 14.4747 44.5352 14.3164C44.0842 14.1581 43.7004 13.9374 43.3838 13.6544C43.0672 13.3714 42.825 13.038 42.6571 12.6542C42.4892 12.2704 42.4052 11.8579 42.4052 11.4165C42.4052 10.8361 42.5443 10.2988 42.8226 9.80469C43.1056 9.31058 43.5086 8.91722 44.0315 8.62459C44.5543 8.33196 45.1516 8.18565 45.8232 8.18565C46.4804 8.18565 47.0345 8.32717 47.4854 8.6102C47.9411 8.89323 48.2769 9.26021 48.4928 9.71114C48.7087 10.1621 48.8166 10.6418 48.8166 11.1503ZM47.0321 10.4883C47.0321 9.39453 46.6003 8.84766 45.7368 8.84766C45.3195 8.84766 44.9981 8.99877 44.7726 9.30099C44.5519 9.60321 44.4296 9.99897 44.4056 10.4883H47.0321Z" fill="white"/>
<path d="M55.8084 0.105263H97.7031V19.8947H55.8084V0.105263Z" stroke="#EE2C3C" stroke-width="0.210526"/>
<path d="M63.8361 8.18565H64.0304C64.112 8.45429 64.1528 8.7781 64.1528 9.15707C64.4598 8.83087 64.7884 8.58861 65.1386 8.43031C65.4936 8.2672 65.8677 8.18565 66.2611 8.18565C67.0766 8.18565 67.7554 8.47348 68.2975 9.04914C68.8396 9.62 69.1106 10.3755 69.1106 11.3158C69.1106 12.2368 68.8372 13.0068 68.2903 13.6256C67.7482 14.2444 67.0334 14.5539 66.146 14.5539C65.7814 14.5539 65.4312 14.4795 65.0954 14.3308C64.7644 14.1869 64.4502 13.971 64.1528 13.6832V15.9211C64.1528 16.6022 64.1647 17.0172 64.1887 17.1659C64.2175 17.3146 64.2943 17.425 64.419 17.4969C64.5437 17.5737 64.7764 17.612 65.117 17.612V17.9431H62.0372V17.612H62.2531C62.5937 17.612 62.8144 17.5617 62.9151 17.4609C63.0206 17.365 63.0806 17.2475 63.095 17.1083C63.1142 16.974 63.1238 16.5783 63.1238 15.9211V10.5674C63.1238 9.93901 63.1142 9.54324 63.095 9.38014C63.0806 9.21704 63.0134 9.09231 62.8935 9.00596C62.7736 8.91961 62.5601 8.87644 62.2531 8.87644H62.0372V8.54544C62.5121 8.49747 63.1118 8.37754 63.8361 8.18565ZM64.1528 13.2083C64.4118 13.5249 64.6852 13.7647 64.9731 13.9278C65.2657 14.0861 65.5727 14.1653 65.8941 14.1653C66.4362 14.1653 66.9087 13.9326 67.3117 13.4673C67.7146 13.002 67.9161 12.2608 67.9161 11.2438C67.9161 10.3612 67.7218 9.70155 67.3333 9.26501C66.9447 8.82847 66.4818 8.6102 65.9445 8.6102C65.6135 8.6102 65.2993 8.69415 65.0018 8.86205C64.7044 9.02995 64.4214 9.2842 64.1528 9.6248V13.2083ZM70.3917 5.17784C70.3917 4.97156 70.4637 4.79407 70.6076 4.64536C70.7563 4.49664 70.9338 4.42229 71.1401 4.42229C71.3464 4.42229 71.5215 4.49664 71.6654 4.64536C71.8093 4.79407 71.8812 4.97156 71.8812 5.17784C71.8812 5.38891 71.8093 5.56881 71.6654 5.71752C71.5215 5.86623 71.3464 5.94059 71.1401 5.94059C70.9338 5.94059 70.7563 5.86623 70.6076 5.71752C70.4637 5.56881 70.3917 5.38891 70.3917 5.17784ZM71.7805 8.18565V12.2944C71.7805 12.9228 71.7901 13.3186 71.8093 13.4817C71.8285 13.6448 71.898 13.7695 72.018 13.8559C72.1379 13.9422 72.3514 13.9854 72.6584 13.9854H72.8095V14.3164H69.6362V13.9854H69.8808C70.2214 13.9854 70.4421 13.9374 70.5428 13.8415C70.6484 13.7407 70.7083 13.6232 70.7227 13.4889C70.7419 13.3498 70.7515 12.9516 70.7515 12.2944V10.5099C70.7515 9.81908 70.7179 9.39693 70.6508 9.24342C70.5884 9.08991 70.5021 8.99397 70.3917 8.95559C70.2862 8.91722 70.0991 8.89803 69.8305 8.89803H69.6362V8.56702C70.4901 8.48068 71.1521 8.35355 71.6222 8.18565H71.7805ZM78.6815 10.4163H74.5727C74.5535 10.6994 74.544 10.9104 74.544 11.0495C74.544 12.0857 74.7047 12.8653 75.0261 13.3882C75.3523 13.9063 75.8368 14.1653 76.4796 14.1653C77.3527 14.1653 77.9715 13.7743 78.3361 12.9924H78.6815C78.528 13.4817 78.2234 13.8655 77.7676 14.1437C77.3119 14.4171 76.8154 14.5539 76.2781 14.5539C75.7792 14.5539 75.3067 14.4291 74.8606 14.1797C74.4192 13.9254 74.057 13.5681 73.774 13.1075C73.491 12.647 73.3495 12.0881 73.3495 11.4309C73.3495 10.5003 73.6229 9.72793 74.1698 9.1139C74.7167 8.49507 75.4002 8.18565 76.2206 8.18565C76.9929 8.18565 77.5901 8.42071 78.0123 8.89083C78.4344 9.36095 78.6575 9.86945 78.6815 10.4163ZM77.4222 10.1285C77.4366 10.0182 77.4438 9.91982 77.4438 9.83347C77.4438 9.41132 77.3191 9.08512 77.0697 8.85485C76.825 8.61979 76.5228 8.50226 76.163 8.50226C75.2899 8.50226 74.7694 9.04434 74.6015 10.1285H77.4222ZM84.5823 12.8773H84.8989C84.5727 13.995 83.7572 14.5539 82.4523 14.5539C81.6128 14.5539 80.9053 14.2684 80.3296 13.6976C79.7587 13.1267 79.4733 12.3712 79.4733 11.4309C79.4733 10.4667 79.7827 9.68476 80.4016 9.08512C81.0204 8.48547 81.752 8.18565 82.5963 8.18565C83.1048 8.18565 83.5725 8.29838 83.9994 8.52385C84.4264 8.74452 84.6398 9.01556 84.6398 9.33697C84.6398 9.4569 84.5991 9.56963 84.5175 9.67517C84.4408 9.7807 84.328 9.83347 84.1793 9.83347C83.8627 9.83347 83.6684 9.64878 83.5965 9.2794C83.5389 9.00117 83.4501 8.80688 83.3302 8.69655C83.2055 8.58621 82.9632 8.53105 82.6034 8.53105C81.9606 8.53105 81.4761 8.75411 81.1499 9.20025C80.8285 9.64638 80.6678 10.318 80.6678 11.215C80.6678 12.1409 80.8405 12.8653 81.1859 13.3882C81.5361 13.911 82.0638 14.1725 82.769 14.1725C83.7188 14.1725 84.3232 13.7407 84.5823 12.8773ZM90.8428 10.4163H86.7341C86.7149 10.6994 86.7053 10.9104 86.7053 11.0495C86.7053 12.0857 86.866 12.8653 87.1874 13.3882C87.5136 13.9063 87.9981 14.1653 88.6409 14.1653C89.514 14.1653 90.1329 13.7743 90.4974 12.9924H90.8428C90.6893 13.4817 90.3847 13.8655 89.929 14.1437C89.4733 14.4171 88.9767 14.5539 88.4395 14.5539C87.9406 14.5539 87.468 14.4291 87.0219 14.1797C86.5806 13.9254 86.2184 13.5681 85.9354 13.1075C85.6523 12.647 85.5108 12.0881 85.5108 11.4309C85.5108 10.5003 85.7842 9.72793 86.3311 9.1139C86.878 8.49507 87.5616 8.18565 88.3819 8.18565C89.1542 8.18565 89.7515 8.42071 90.1736 8.89083C90.5958 9.36095 90.8189 9.86945 90.8428 10.4163ZM89.5836 10.1285C89.598 10.0182 89.6052 9.91982 89.6052 9.83347C89.6052 9.41132 89.4805 9.08512 89.231 8.85485C88.9863 8.61979 88.6841 8.50226 88.3243 8.50226C87.4513 8.50226 86.9308 9.04434 86.7629 10.1285H89.5836Z" fill="#EE2C3C"/>
<path d="M97.7068 0.105263H117.496V19.8947H97.7068V0.105263Z" stroke="#EE2C3C" stroke-width="0.210526"/>
<path d="M117.602 0V20H97.6016L117.602 0Z" fill="#EE2C3C"/>
</svg>
