<?xml version="1.0" encoding="utf-8"?>
<!-- Generator: Adobe Illustrator 25.2.1, SVG Export Plug-In . SVG Version: 6.00 Build 0)  -->
<svg version="1.1" id="Layer_1" xmlns="http://www.w3.org/2000/svg" xmlns:xlink="http://www.w3.org/1999/xlink" x="0px" y="0px"
	 viewBox="0 0 595.28 841.89" style="enable-background:new 0 0 595.28 841.89;" xml:space="preserve">
<style type="text/css">
	.st0{fill:#FFFFFF;}
</style>
<g>
	<path class="st0" d="M595.28,699.3c-198.38,0-396.76,0-595.28,0C0,468.22,0,237.09,0,5.73c198.34,0,396.81,0,595.28,0
		C595.28,236.81,595.28,468.03,595.28,699.3z M189.36,352.23l-0.15-0.16c-5.27,4-10.54,8-15.77,11.97c-0.37-1.03-0.8-2.97-1.09-2.95
		c-10.45,0.78-20.88,1.75-32.89,2.84c12.47,0,23.31,0,34.15,0c-3.87,2.02-7.75,4.05-11.62,6.07c0.27,0.75,0.53,1.51,0.8,2.26
		c5.47,0.28,11.29,1.87,16.33,0.54c7.62-2.01,11.8,2.43,16.78,6.03c2.4,1.73,4.71,3.59,7.12,5.31c3.46,2.47,6.98,4.87,11.74,8.2
		c-5.32,1.7-9.14,2.93-11.97,3.83c11.47,5.37,22.85,10.7,32.99,15.45c4.78,0.89,8.45,1.72,12.17,2.24c3.96,0.56,8.85-0.45,11.7,1.55
		c3.45,2.41,5.89,0.95,8.89,0.88c0.72-0.02,1.51,2.46,1.6,2.61c1.58-0.95,3.42-2.06,6.29-3.79c-0.43,4.23-0.66,6.48-0.99,9.74
		c1.53-3.3,2.55-5.52,3.58-7.74c0.75,0.2,1.51,0.4,2.26,0.6c-1.86,14.61-3.72,29.22-5.58,43.83c0.4,0.06,0.79,0.11,1.19,0.17
		c2.16-14.53,4.32-29.05,6.48-43.58c0.69,0.07,1.38,0.14,2.07,0.21c-1.05,19.85-2.1,39.7-3.16,59.54c0.39,0.02,0.77,0.04,1.16,0.06
		c1.48-19.55,2.97-39.1,4.45-58.65c0.63,0.03,1.27,0.06,1.9,0.09c0,32.78,0,65.56,0,98.34c0.67,0,1.34-0.01,2.01-0.01
		c0-33.23,0-66.45,0-99.68c0.54,0,1.09-0.01,1.63-0.01c1.32,19.6,2.64,39.2,3.95,58.8c0.42-0.02,0.83-0.05,1.25-0.07
		c-0.97-19.61-1.95-39.21-2.92-58.82c0.67-0.06,1.33-0.11,2-0.17c2.08,14.15,4.16,28.29,6.24,42.44c0.27-7.18-0.53-14.2-1.39-21.21
		c-0.88-7.17-1.82-14.33-2.6-20.52c2.93-1.1,4.75-2.46,6.29-2.19c1.82,0.32,3.39,2.03,5.01,3.1c1.54-4.75,19.95-7.65,23.04-4.65
		c1.37-1.12,2.42-2.64,3.74-2.94c12.47-2.82,23.17-9.25,33.68-15.59c-2.41-1.49-4.59-2.84-7.49-4.63c4.04-2.9,6.99-5.46,10.35-7.23
		c1.7-0.9,4.4-1.04,6.22-0.36c6.85,2.54,6.79,2.71,12.91-3.5c-9.49,3.05-9.49,3.05-12.92-0.43c8.25-7.32,8.25-7.35,18.34-6.93
		c8.78,0.37,17.56,0.82,26.12,1.23c-22.79-8.62-41.17-24.65-62.73-36.38c8.98-3.27,9.43-3.21,16.97,5.46
		c6.68,7.68,15,12.57,23.47,15.45c3.01-2.75,5.25-4.81,8.49-7.78c-10.69,2.01-18.69-1.91-25.73-9.6c6.07-1.79,1.04-5.22,0.17-9.04
		c4.08,3.67,7.12,7.04,10.8,9.43c1.79,1.16,4.78,0.48,7.23,0.63c-0.45-2.07-0.25-4.71-1.47-6.1c-5.54-6.28-11.48-12.21-17.46-18.45
		c1.03-0.77,2.03-1.52,3.02-2.27c-0.37,0.54-0.75,1.07-1.12,1.61c-4.6-2.65-9.19-5.34-13.82-7.95c-4.94-2.79-9.84-5.67-14.92-8.19
		c-5.01-2.49-10.06-5.84-15.37-6.48c-5.13-0.61-9.62-3.1-14.53-4.1c-4.99-1.01-11.24,0.32-15.17-3.18
		c-4.2-3.74-9.28,2.79-12.94-2.81c0.53-5.48,1.12-11.56,1.71-17.64c-0.24-0.03-0.49-0.06-0.73-0.09c-1.24,6-2.48,12-3.72,18.01
		c-0.57-0.09-1.15-0.19-1.72-0.28c0.96-18.79,1.93-37.58,2.89-56.37c-0.42-0.02-0.84-0.05-1.26-0.07
		c-1.26,18.77-2.53,37.55-3.79,56.32c-0.74-0.02-1.48-0.04-2.22-0.06c0-32.76,0-65.52,0-98.28c-0.69,0-1.38,0.01-2.06,0.01
		c0,32.64,0,65.28,0,97.93c-0.49,0.02-0.99,0.03-1.48,0.05c-1.46-19.52-2.92-39.05-4.38-58.57c-0.39,0.02-0.77,0.04-1.16,0.06
		c1.03,19.67,2.07,39.35,3.1,59.02c-0.62,0.06-1.24,0.13-1.86,0.19c-1.06-5.45-2.12-10.9-3.18-16.35c-0.26,0.02-0.52,0.05-0.78,0.07
		c0.26,5.69,0.53,11.38,0.79,17.07c-0.41,0.08-0.83,0.17-1.24,0.25c-0.99-1.75-1.98-3.49-3.23-5.69c-0.33,2.8-0.58,4.95-1.05,8.88
		c-2.27-2.72-3.46-4.14-4.19-5.02c-0.91,1.09-1.89,2.27-2.87,3.45c-1.97-1.63-3.93-3.26-5.63-4.67c0.22,1.48,0.53,3.54,1.07,7.15
		c-3.56-1.5-5.91-2.49-7.58-3.19c-1.09,1.19-1.93,2.88-3.21,3.35c-3.31,1.21-6.8,1.93-10.25,2.75
		c-17.31,4.13-33.02,11.83-46.69,22.97c-5.63,4.59-9.74,10.49-18.13,6.74c2.36,1,4.71,1.99,9.66,4.09
		c-4.61,3.54-9.68,5.43-10.78,8.67c-2.79,8.22-8.12,5.87-13.72,5.29c-7.36-0.76-14.77-0.94-22.16-1.38c-0.04,0.5-0.07,1-0.11,1.5
		c13.06,0.98,26.12,1.95,38.85,2.91c-0.56,4.75-1.01,8.65-1.68,14.34C181.92,355.81,185.64,354.02,189.36,352.23z M63.47,351.93
		c0.04,0.34,0.08,0.67,0.12,1.01c28.87,0,57.74,0,86.61,0c-0.01-0.34-0.02-0.67-0.03-1.01C121.27,351.93,92.37,351.93,63.47,351.93z
		 M419.96,351.96c0,0.43,0,0.86-0.01,1.29c17.96,0,35.93,0,53.89,0c0-0.43,0-0.86,0.01-1.29
		C455.89,351.96,437.93,351.96,419.96,351.96z M289.78,603.19c0.32-0.04,0.64-0.08,0.96-0.12c0-24.31,0-48.62,0-72.94
		c-0.32,0-0.64,0-0.96,0.01C289.78,554.49,289.78,578.84,289.78,603.19z M289.74,174.64c0.32,0,0.65,0,0.97-0.01
		c0-24.2,0-48.39,0-72.59c-0.32,0-0.65,0-0.97,0C289.74,126.24,289.74,150.44,289.74,174.64z M297.82,216.07
		c0.6,0.1,1.2,0.2,1.79,0.3c1.17-19.48,2.34-38.96,3.51-58.43c-0.47-0.03-0.93-0.06-1.4-0.09
		C300.42,177.25,299.12,196.66,297.82,216.07z M299.57,488.14c-0.58,0.05-1.17,0.1-1.75,0.15c1.32,19.52,2.63,39.04,3.95,58.56
		c0.47-0.03,0.93-0.07,1.4-0.1C301.97,527.21,300.77,507.68,299.57,488.14z M506.08,369.96c0.04-0.62,0.08-1.23,0.12-1.85
		c-15.34-1.06-30.69-2.11-46.03-3.17c-0.04,0.56-0.08,1.12-0.11,1.67C475.4,367.73,490.74,368.85,506.08,369.96z M505.45,336.23
		c-0.04-0.63-0.09-1.26-0.13-1.88c-15.15,1.19-30.31,2.37-45.46,3.56c0.05,0.56,0.11,1.13,0.16,1.69
		C475.16,338.48,490.3,337.36,505.45,336.23z M311.83,520.73c0.45-0.13,0.9-0.27,1.36-0.4c-2.1-15.91-4.19-31.82-6.29-47.73
		c-0.47,0.06-0.95,0.12-1.42,0.18C307.6,488.76,309.71,504.74,311.83,520.73z M449.44,365.9c0.05-0.63,0.09-1.25,0.14-1.88
		c-13.87-0.92-27.74-1.85-41.61-2.77c-0.04,0.55-0.08,1.1-0.12,1.65C421.71,363.9,435.58,364.9,449.44,365.9z M53.51,353.21
		c-0.01-0.37-0.02-0.73-0.03-1.1c-8.96,0-17.93,0-26.89,0c0.01,0.37,0.02,0.73,0.03,1.1C35.58,353.21,44.54,353.21,53.51,353.21z
		 M409.9,341.55c0.04,0.53,0.09,1.07,0.13,1.6c13.1-1.02,26.2-2.04,39.3-3.06c-0.05-0.57-0.09-1.14-0.14-1.7
		C436.09,339.44,422.99,340.5,409.9,341.55z M282.75,490.99c-0.54-0.01-1.08-0.02-1.61-0.03c-0.72,13.59-1.44,27.18-2.16,40.76
		c0.52,0.02,1.03,0.05,1.55,0.07C281.27,518.19,282.01,504.59,282.75,490.99z M516.42,368.91c-0.05,0.57-0.1,1.15-0.15,1.72
		c11.62,0.9,23.24,1.81,34.86,2.71c0.05-0.64,0.11-1.28,0.16-1.91C539.67,370.59,528.05,369.75,516.42,368.91z M280.53,172.26
		c-0.55-0.02-1.11-0.05-1.66-0.07c0.78,13.6,1.56,27.2,2.33,40.8c0.5-0.03,1.01-0.05,1.51-0.08
		C281.98,199.36,281.26,185.81,280.53,172.26z M289.75,89.94c0.29-0.06,0.58-0.13,0.87-0.19c0-13.31,0-26.62,0-39.93
		c-0.29,0.01-0.58,0.02-0.87,0.03C289.75,63.21,289.75,76.58,289.75,89.94z M550.95,332.77c-0.1-0.48-0.2-0.96-0.31-1.44
		c-11.72,0.83-23.43,1.65-35.15,2.48c0.05,0.62,0.11,1.25,0.16,1.87C527.42,334.71,539.19,333.74,550.95,332.77z M291.02,614.6
		c-0.33-0.04-0.65-0.08-0.98-0.12c0,13.26,0,26.52,0,39.78c0.33,0,0.65-0.01,0.98-0.01C291.02,641.04,291.02,627.82,291.02,614.6z
		 M266.87,175.71c0.48-0.08,0.95-0.15,1.43-0.23c-1.74-12.38-3.47-24.76-5.21-37.13c-0.47,0.08-0.94,0.15-1.41,0.23
		C263.41,150.96,265.14,163.33,266.87,175.71z M268.22,529.02c-0.47-0.07-0.95-0.14-1.42-0.2c-1.72,12.55-3.45,25.1-5.17,37.66
		c0.49,0.07,0.98,0.14,1.46,0.21C264.8,554.13,266.51,541.57,268.22,529.02z M432.02,389.62c0.12-0.46,0.23-0.92,0.35-1.37
		c-10.39-2.61-20.79-5.22-31.18-7.83c-0.12,0.47-0.24,0.94-0.36,1.41C411.22,384.43,421.62,387.03,432.02,389.62z M105.28,303.64
		c-0.12,0.48-0.23,0.97-0.35,1.45c10.21,2.51,20.43,5.02,30.64,7.53c0.11-0.45,0.22-0.9,0.33-1.35
		C125.68,308.73,115.48,306.19,105.28,303.64z M435.12,375.11c-0.07,0.51-0.15,1.03-0.22,1.54c8.52,1.27,17.05,2.55,25.57,3.82
		c0.07-0.5,0.15-1,0.22-1.5C452.17,377.69,443.65,376.4,435.12,375.11z M318.67,142.43c-0.45-0.06-0.9-0.11-1.35-0.17
		c-1.31,9.93-2.63,19.87-3.94,29.8c0.47,0.06,0.94,0.12,1.41,0.18C316.09,162.3,317.38,152.37,318.67,142.43z M314.8,532.15
		c-0.49,0.15-0.97,0.29-1.46,0.44c1.34,9.85,2.68,19.7,4.02,29.56c0.44-0.06,0.89-0.12,1.33-0.18
		C317.39,552.02,316.1,542.09,314.8,532.15z M277.82,132.73c-0.5,0.09-0.99,0.18-1.49,0.27c0.57,8.98,1.14,17.97,1.71,26.95
		c0.55-0.04,1.11-0.07,1.66-0.11C279.08,150.8,278.45,141.77,277.82,132.73z M279.71,543.45c-0.56-0.03-1.11-0.06-1.67-0.1
		c-0.54,9.49-1.08,18.98-1.62,28.47c0.47,0.02,0.94,0.05,1.42,0.07C278.46,562.42,279.08,552.93,279.71,543.45z M461.35,325.19
		c-0.09-0.53-0.19-1.06-0.28-1.59c-8.36,1.38-16.73,2.77-25.09,4.15c0.08,0.47,0.16,0.95,0.25,1.42
		C444.6,327.85,452.97,326.52,461.35,325.19z"/>
	<path d="M173.4,364.07c5.27-4,10.54-8,15.82-11.99c8.51-4.45,17-8.9,25.5-13.36c-0.24-0.74-0.48-1.47-0.72-2.21
		c-2.42,0.42-5.4,0.1-7.17,1.41c-6.05,4.46-11.68,9.5-17.47,14.31c-3.72,1.79-7.43,3.58-11.99,5.78c0.67-5.7,1.12-9.59,1.68-14.34
		c-12.73-0.95-25.79-1.93-38.85-2.91c0.04-0.5,0.07-1,0.11-1.5c7.39,0.43,14.81,0.62,22.16,1.38c5.6,0.58,10.92,2.92,13.72-5.29
		c1.1-3.24,6.18-5.13,10.78-8.67c-4.95-2.09-7.3-3.09-9.66-4.09c8.4,3.75,12.5-2.15,18.13-6.74c13.68-11.13,29.38-18.84,46.69-22.97
		c3.44-0.82,6.94-1.54,10.25-2.75c1.28-0.47,2.12-2.16,3.21-3.35c1.67,0.7,4.02,1.69,7.58,3.19c-0.54-3.61-0.85-5.66-1.07-7.15
		c1.7,1.41,3.66,3.04,5.63,4.67c0.98-1.18,1.96-2.36,2.87-3.45c0.73,0.87,1.91,2.29,4.19,5.02c0.46-3.94,0.72-6.08,1.05-8.88
		c1.25,2.2,2.24,3.95,3.23,5.69c0.41-0.08,0.83-0.17,1.24-0.25c-0.26-5.69-0.53-11.38-0.79-17.07c0.26-0.02,0.52-0.05,0.78-0.07
		c1.06,5.45,2.12,10.9,3.18,16.35c0.62-0.06,1.24-0.13,1.86-0.19c-1.03-19.67-2.07-39.35-3.1-59.02c0.39-0.02,0.77-0.04,1.16-0.06
		c1.46,19.52,2.92,39.05,4.38,58.57c0.49-0.02,0.99-0.03,1.48-0.05c0-32.64,0-65.28,0-97.93c0.69,0,1.38-0.01,2.06-0.01
		c0,32.76,0,65.52,0,98.28c0.74,0.02,1.48,0.04,2.22,0.06c1.26-18.77,2.53-37.55,3.79-56.32c0.42,0.02,0.84,0.05,1.26,0.07
		c-0.96,18.79-1.93,37.58-2.89,56.37c0.57,0.09,1.15,0.19,1.72,0.28c1.24-6,2.48-12,3.72-18.01c0.24,0.03,0.49,0.06,0.73,0.09
		c-0.59,6.08-1.18,12.16-1.71,17.64c3.66,5.6,8.74-0.93,12.94,2.81c3.92,3.5,10.18,2.17,15.17,3.18c4.91,1,9.4,3.48,14.53,4.1
		c5.31,0.63,10.37,3.99,15.37,6.48c5.08,2.52,9.98,5.41,14.92,8.19c4.63,2.61,9.21,5.3,13.82,7.95c0.37-0.54,0.75-1.07,1.12-1.61
		c-1,0.75-2,1.49-3.02,2.27c5.98,6.25,11.92,12.17,17.46,18.45c1.22,1.39,1.02,4.03,1.47,6.1c-2.45-0.15-5.44,0.53-7.23-0.63
		c-3.68-2.39-6.72-5.77-10.8-9.43c0.87,3.82,5.89,7.25-0.17,9.04c7.03,7.68,15.03,11.6,25.73,9.6c-3.24,2.97-5.49,5.03-8.49,7.78
		c-8.48-2.87-16.79-7.77-23.47-15.45c-7.54-8.67-7.99-8.72-16.97-5.46c21.57,11.73,39.95,27.76,62.73,36.38
		c-8.57-0.41-17.34-0.86-26.12-1.23c-10.08-0.42-10.08-0.39-18.34,6.93c3.43,3.48,3.43,3.48,12.92,0.43
		c-6.13,6.21-6.06,6.03-12.91,3.5c-1.82-0.67-4.52-0.53-6.22,0.36c-3.36,1.77-6.31,4.33-10.35,7.23c2.9,1.79,5.08,3.14,7.49,4.63
		c-10.51,6.35-21.21,12.78-33.68,15.59c-1.32,0.3-2.37,1.83-3.74,2.94c-3.09-3-21.51-0.1-23.04,4.65c-1.62-1.07-3.19-2.78-5.01-3.1
		c-1.54-0.27-3.35,1.09-6.29,2.19c0.79,6.19,1.73,13.35,2.6,20.52c0.86,7.01,1.66,14.03,1.39,21.21
		c-2.08-14.15-4.16-28.29-6.24-42.44c-0.67,0.06-1.33,0.11-2,0.17c0.97,19.61,1.95,39.21,2.92,58.82c-0.42,0.02-0.83,0.05-1.25,0.07
		c-1.32-19.6-2.64-39.2-3.95-58.8c-0.54,0-1.09,0.01-1.63,0.01c0,33.23,0,66.46,0,99.68c-0.67,0-1.34,0.01-2.01,0.01
		c0-32.78,0-65.56,0-98.34c-0.63-0.03-1.27-0.06-1.9-0.09c-1.48,19.55-2.97,39.1-4.45,58.65c-0.39-0.02-0.77-0.04-1.16-0.06
		c1.05-19.85,2.1-39.7,3.16-59.54c-0.69-0.07-1.38-0.14-2.07-0.21c-2.16,14.53-4.32,29.05-6.48,43.58c-0.4-0.06-0.79-0.11-1.19-0.17
		c1.86-14.61,3.72-29.22,5.58-43.83c-0.75-0.2-1.51-0.4-2.26-0.6c-1.03,2.22-2.05,4.44-3.58,7.74c0.33-3.26,0.56-5.51,0.99-9.74
		c-2.87,1.73-4.72,2.84-6.29,3.79c-0.09-0.15-0.87-2.63-1.6-2.61c-3,0.07-5.44,1.53-8.89-0.88c-2.85-2-7.75-1-11.7-1.55
		c-3.72-0.52-7.39-1.35-12.17-2.24c-10.14-4.75-21.52-10.08-32.99-15.45c2.83-0.9,6.65-2.13,11.97-3.83
		c-4.77-3.32-8.28-5.72-11.74-8.2c-2.41-1.72-4.72-3.58-7.12-5.31c-4.98-3.6-9.15-8.04-16.78-6.03c-5.04,1.33-10.86-0.26-16.33-0.54
		c-0.27-0.75-0.53-1.51-0.8-2.26c3.87-2.02,7.75-4.05,11.62-6.07C173.6,363.93,173.4,364.07,173.4,364.07z M382.8,370.39
		c-9.03-5.01-17.21-9.54-26.44-14.66c-0.28,0.99-0.77,2.68-1.25,4.37c-0.49-0.47-0.98-0.95-1.46-1.42
		c-0.33-1.63-0.66-3.25-1.13-5.57c-1.12,2.51-1.9,4.25-3.17,7.07c-0.91-4.7-1.58-8.14-2.2-11.37c-2.49,0.74-4.31,1.29-6.52,1.95
		c1.35,19.86-9.04,35.15-21.75,49.44c0.46,0.5,0.92,0.99,1.37,1.49c4.01-2.92,8.03-5.83,11.96-8.69c-0.23,1.2-0.55,2.94-0.87,4.61
		C352,394.93,367.3,383.36,382.8,370.39z M246.57,397.9c-0.42-2.12-0.73-3.71-0.86-4.39c3.97,2.57,8.09,5.25,12.21,7.92
		c0.31-0.51,0.63-1.03,0.94-1.54c-13.25-13.9-22.42-29.64-21.99-49.49c-2.17-0.15-3.91-0.27-5.97-0.41
		c-0.58,3.29-1.15,6.57-2.02,11.55c-1.46-3.96-2.37-6.43-3.88-10.54c-0.63,3.97-0.95,6.03-1.41,8.89c-1.44-1.84-2.24-2.85-2.78-3.55
		c-8.66,4.67-17.18,9.27-25.87,13.96C213.61,387.05,224.14,392.71,246.57,397.9z M325.26,321c17.26,8.25,27.43,7.95,39.32-0.63
		c-9.24-11.56-17.12-0.1-25.71,1.95c9.53-12.62,21.1-8.35,33.08-3.9c-7.35-5.64-14.85-9.94-22.53-13.88
		c-1.27-0.65-3.83-0.32-4.98,0.59C337.98,310.19,331.77,315.57,325.26,321z M208.92,321.17c-8.08-0.92-18.87,8.06-27.1,22.11
		c1.88-1.29,2.9-2.06,3.99-2.73c6.23-3.78,10.1-13.63,20.1-7.8c0.28,0.16,0.89-0.12,1.3-0.31c9.22-4.27,18.43-8.55,27.72-12.87
		c-20.11-13.01-14.29-11.82-28.29-2.32C207.26,318.35,207.89,319.41,208.92,321.17z M221.97,308.26
		c6.64,3.79,13.07,6.55,18.39,10.73c7.65,6.01,14.19,2.25,21.24-0.23c-0.23-0.95-0.21-1.49-0.46-1.81c-3.18-3.92-6.4-7.8-9.61-11.69
		c-6.27-7.57-6.27-7.57-16.18-2.66c6.48,5.2,12.79,10.26,19.1,15.32c-0.49,0.57-0.98,1.14-1.47,1.71
		c-5.2-3.96-10.93-7.41-15.47-12.02C232.19,302.19,227.77,303.4,221.97,308.26z M307.42,366.54c0.76,0.23,1.52,0.47,2.29,0.7
		c1.4-6.53,3.03-13.01,4.15-19.59c1.48-8.66-1.3-11.2-10.09-9.88c-1.26,0.19-2.66-0.48-3.88-0.21c-2.89,0.63-7.56,0.93-8.14,2.56
		c-1.02,2.87-0.51,7.25,1.15,9.88c2.07,3.28,5.94,5.42,8.8,7.86c2.74-1.5,4.81-2.64,8.55-4.69
		C309.05,358.83,308.23,362.69,307.42,366.54z M257.36,370.7c-0.66,0.09-1.32,0.17-1.98,0.26c0.61,2.51,0.44,5.74,1.98,7.38
		c4.42,4.75,9.31,9.14,14.43,13.15c7.48,5.84,15.98,1.02,24.1,1.75c-0.61,0.8-1.23,1.62-2.34,3.07
		c13.4-2.67,21.21-11.58,28.25-21.57c-2.26-0.02-4.09,0.75-5.27,2.09c-8.84,10.09-19.36,16.64-33.25,13.91
		C271.58,388.44,263.16,381.07,257.36,370.7z M318.36,302.07c-1.41,2.5-2.83,4.99-4.21,7.51c-1.39,2.53-2.74,5.08-4.22,7.85
		c5.33,0.51,12.31-6.33,20.15-19.25c-5.49-1.28-10.74-2.7-16.08-3.59c-1.26-0.21-3.64,1.05-4.09,2.19c-2.48,6.28-4.53,12.73-7.37,21
		C311.65,314.2,311.35,305.02,318.36,302.07z M272.83,299.86c-3.38-3.57-5.39-8.65-11.93-3.63c4.57,6.89,7.15,14.98,13.07,20.71
		c0.61-0.37,1.22-0.75,1.83-1.12c-0.43-2.31-0.86-4.61-1.29-6.92c0.32-0.14,0.64-0.27,0.95-0.41c1.8,2.6,3.6,5.21,5.4,7.81
		c0.71-0.31,1.43-0.61,2.14-0.92c-1.25-7.31-2.5-14.62-3.84-22.48c-2.67,0.19-4.82,0.35-7.23,0.52
		C272.29,295.95,272.56,297.91,272.83,299.86z M256.82,385.42c7.51,13.41,19.98,17.17,34.24,16.84c14.72-0.34,25.64-7,30.39-17.93
		C299.12,405.61,277.44,404.41,256.82,385.42z M315.09,373c-0.42-0.68-0.84-1.36-1.26-2.04c-2.48,2.1-4.77,4.48-7.47,6.24
		c-11.18,7.29-22.55,11.94-34.81,0.85c0.21,2.31,0.63,4.43,1.9,5.3C287.6,392.93,304.06,388.77,315.09,373z M336.69,409.83
		c0.21-0.82,0.41-1.64,0.62-2.47c-1.56-1.07-3.29-3.26-4.64-3.05c-13.71,2.18-27.36,4.75-41.02,7.21c0.11,0.87,0.22,1.73,0.33,2.6
		C306.88,412.69,321.78,411.26,336.69,409.83z M342.46,303.2c-0.08-0.72-0.15-1.43-0.23-2.15c-3.22-0.16-7.8-1.76-9.41-0.24
		c-5.64,5.37-10.25,11.81-15.26,17.84c0.62,0.68,1.25,1.36,1.87,2.04C328.1,316.27,334.72,308.94,342.46,303.2z M267.52,318.45
		c0.7-0.54,1.4-1.08,2.1-1.62c-2.91-5.1-6.14-10.04-8.64-15.33c-2.63-5.55-6-6.58-11.83-2.85
		C255.8,305.08,259.94,313.41,267.52,318.45z M292.28,292.42c0,8.36,0,15.82,0,23.27c0.85,0.06,1.71,0.13,2.56,0.19
		c1.4-7.51,2.8-15.01,4.28-23.01C296.13,292.67,294.15,292.54,292.28,292.42z M255.75,406c-10.37,0.52-18.34-8.47-27.83-2.95
		c-0.1,0.81-0.19,1.62-0.29,2.44c4.84,0.66,9.69,1.32,15.55,2.13C245.11,411.46,250.73,412.21,255.75,406z M281.9,293.25
		c1.4,7.5,2.78,14.84,4.15,22.18c0.93-0.07,1.86-0.14,2.8-0.21c0-6.24-0.19-12.48,0.06-18.71
		C289.11,291.72,286.69,291.77,281.9,293.25z M361.25,326.06c7.14,4.17,13.64,7.97,20.59,12.02
		C374.1,323.94,370.33,321.68,361.25,326.06z M297.75,315.56c0.79,0.17,1.59,0.34,2.38,0.51c2.52-7.24,5.04-14.48,8.3-23.85
		c-3.51,1.49-6.43,1.9-6.7,2.97C300.08,301.91,299.01,308.76,297.75,315.56z M348.97,330.6c5.6,3.78,10.85,6.24,17.12,2.17
		C361.09,327.47,355.89,325.31,348.97,330.6z M228.53,399.16c-4.94-2.39-8.84-4.27-13.04-6.3c-1.22,1.46-2.39,2.85-4.13,4.92
		C217.45,398.46,221.55,406.22,228.53,399.16z M349.79,398.64c4.7,5.19,8.11,4.48,16.3-2.51
		C359.67,390.49,355.58,397.39,349.79,398.64z M272.08,369.38c2.97-2.17,4.87-3.56,6.78-4.96c-1.75-1.71-3.33-4.46-5.32-4.79
		c-1.47-0.25-3.99,2.36-4.99,4.26C268.13,364.68,270.42,366.9,272.08,369.38z M272.94,370.82c8.08,11.36,23.28,11.83,29.8,1.95
		C292.79,377.62,283.35,380.46,272.94,370.82z M183.7,346.26c0.34,0.47,0.69,0.95,1.03,1.42c5.67-4,11.35-8,17.02-12
		C192.45,334.42,189.57,342.53,183.7,346.26z M350.43,404.17c-4.21-6.62-8.37-2.67-12.93-0.67
		C341.93,408.02,341.93,408.02,350.43,404.17z M242.8,325.76c-0.09-1.27-0.18-2.53-0.28-3.8c-4.47,0.81-8.94,1.61-13.42,2.42
		c0.18,1.15,0.37,2.3,0.55,3.45C234.04,327.14,238.42,326.45,242.8,325.76z M266.83,372.97c-1.37-1.82-3.34-3.34-3.7-5.17
		c-0.5-2.59,0.19-5.41,0.44-8.98c-6.06,6.82-3.76,11.8-0.22,15.31C264.84,373.63,266.32,373.14,266.83,372.97z M215.02,333.03
		c0.21,0.76,0.42,1.52,0.63,2.28c4.44-1.28,8.88-2.55,14.81-4.25C222.65,325.67,219.13,330.47,215.02,333.03z"/>
	<path d="M63.47,351.93c28.9,0,57.8,0,86.7,0c0.01,0.34,0.02,0.67,0.03,1.01c-28.87,0-57.74,0-86.61,0
		C63.55,352.61,63.51,352.27,63.47,351.93z"/>
	<path d="M419.96,351.96c17.96,0,35.93,0,53.89,0c0,0.43,0,0.86-0.01,1.29c-17.96,0-35.93,0-53.89,0
		C419.96,352.82,419.96,352.39,419.96,351.96z"/>
	<path d="M289.78,603.19c0-24.35,0-48.7,0-73.05c0.32,0,0.64,0,0.96-0.01c0,24.31,0,48.62,0,72.94
		C290.41,603.11,290.09,603.15,289.78,603.19z"/>
	<path d="M289.74,174.64c0-24.2,0-48.4,0-72.59c0.32,0,0.65,0,0.97,0c0,24.2,0,48.39,0,72.59
		C290.39,174.64,290.06,174.64,289.74,174.64z"/>
	<path d="M297.82,216.07c1.3-19.41,2.6-38.81,3.9-58.22c0.47,0.03,0.93,0.06,1.4,0.09c-1.17,19.48-2.34,38.96-3.51,58.43
		C299.01,216.27,298.42,216.17,297.82,216.07z"/>
	<path d="M299.57,488.14c1.2,19.54,2.4,39.07,3.6,58.61c-0.47,0.03-0.93,0.07-1.4,0.1c-1.32-19.52-2.63-39.04-3.95-58.56
		C298.41,488.24,298.99,488.19,299.57,488.14z"/>
	<path d="M506.08,369.96c-15.34-1.11-30.68-2.23-46.02-3.34c0.04-0.56,0.08-1.12,0.11-1.67c15.34,1.06,30.69,2.11,46.03,3.17
		C506.16,368.73,506.12,369.34,506.08,369.96z"/>
	<path d="M505.45,336.23c-15.14,1.12-30.29,2.25-45.43,3.37c-0.05-0.56-0.11-1.13-0.16-1.69c15.15-1.19,30.31-2.37,45.46-3.56
		C505.36,334.98,505.4,335.6,505.45,336.23z"/>
	<path d="M311.83,520.73c-2.12-15.98-4.23-31.97-6.35-47.95c0.47-0.06,0.95-0.12,1.42-0.18c2.1,15.91,4.19,31.82,6.29,47.73
		C312.73,520.46,312.28,520.59,311.83,520.73z"/>
	<path d="M449.44,365.9c-13.87-1-27.73-2-41.6-2.99c0.04-0.55,0.08-1.1,0.12-1.65c13.87,0.92,27.74,1.85,41.61,2.77
		C449.54,364.65,449.49,365.27,449.44,365.9z"/>
	<path d="M53.51,353.21c-8.96,0-17.92,0-26.89,0c-0.01-0.37-0.02-0.73-0.03-1.1c8.96,0,17.93,0,26.89,0
		C53.49,352.48,53.5,352.85,53.51,353.21z"/>
	<path d="M409.9,341.55c13.1-1.05,26.19-2.11,39.29-3.16c0.05,0.57,0.09,1.14,0.14,1.7c-13.1,1.02-26.2,2.04-39.3,3.06
		C409.98,342.62,409.94,342.09,409.9,341.55z"/>
	<path d="M282.75,490.99c-0.74,13.6-1.48,27.2-2.22,40.8c-0.52-0.02-1.03-0.05-1.55-0.07c0.72-13.59,1.44-27.18,2.16-40.76
		C281.68,490.97,282.21,490.98,282.75,490.99z"/>
	<path d="M516.42,368.91c11.62,0.84,23.25,1.68,34.87,2.51c-0.05,0.64-0.11,1.28-0.16,1.91c-11.62-0.9-23.24-1.81-34.86-2.71
		C516.33,370.06,516.37,369.49,516.42,368.91z"/>
	<path d="M280.53,172.26c0.73,13.55,1.45,27.1,2.18,40.65c-0.5,0.03-1.01,0.05-1.51,0.08c-0.78-13.6-1.56-27.2-2.33-40.8
		C279.42,172.21,279.97,172.23,280.53,172.26z"/>
	<path d="M289.75,89.94c0-13.36,0-26.73,0-40.09c0.29-0.01,0.58-0.02,0.87-0.03c0,13.31,0,26.62,0,39.93
		C290.33,89.81,290.04,89.88,289.75,89.94z"/>
	<path d="M550.95,332.77c-11.77,0.97-23.53,1.94-35.3,2.91c-0.05-0.62-0.11-1.25-0.16-1.87c11.72-0.83,23.43-1.65,35.15-2.48
		C550.75,331.8,550.85,332.29,550.95,332.77z"/>
	<path d="M291.02,614.6c0,13.22,0,26.44,0,39.65c-0.33,0-0.65,0.01-0.98,0.01c0-13.26,0-26.52,0-39.78
		C290.37,614.53,290.69,614.56,291.02,614.6z"/>
	<path d="M173.6,363.93c-10.84,0-21.68,0-34.15,0c12.01-1.08,22.45-2.05,32.89-2.84c0.29-0.02,0.72,1.92,1.07,2.96
		C173.4,364.07,173.6,363.93,173.6,363.93z"/>
	<path d="M266.87,175.71c-1.73-12.38-3.46-24.76-5.19-37.13c0.47-0.08,0.94-0.15,1.41-0.23c1.74,12.38,3.47,24.76,5.21,37.13
		C267.82,175.56,267.35,175.64,266.87,175.71z"/>
	<path d="M268.22,529.02c-1.71,12.55-3.42,25.11-5.13,37.66c-0.49-0.07-0.98-0.14-1.46-0.21c1.72-12.55,3.45-25.1,5.17-37.66
		C267.27,528.88,267.74,528.95,268.22,529.02z"/>
	<path d="M432.02,389.62c-10.4-2.6-20.79-5.19-31.19-7.79c0.12-0.47,0.24-0.94,0.36-1.41c10.39,2.61,20.79,5.22,31.18,7.83
		C432.25,388.71,432.13,389.16,432.02,389.62z"/>
	<path d="M105.28,303.64c10.2,2.54,20.41,5.09,30.61,7.63c-0.11,0.45-0.22,0.9-0.33,1.35c-10.21-2.51-20.43-5.02-30.64-7.53
		C105.04,304.61,105.16,304.13,105.28,303.64z"/>
	<path d="M435.12,375.11c8.52,1.29,17.04,2.58,25.57,3.86c-0.07,0.5-0.15,1-0.22,1.5c-8.52-1.27-17.05-2.55-25.57-3.82
		C434.97,376.14,435.05,375.62,435.12,375.11z"/>
	<path d="M318.67,142.43c-1.29,9.94-2.58,19.87-3.87,29.81c-0.47-0.06-0.94-0.12-1.41-0.18c1.31-9.93,2.63-19.87,3.94-29.8
		C317.78,142.32,318.22,142.37,318.67,142.43z"/>
	<path d="M314.8,532.15c1.3,9.94,2.59,19.87,3.89,29.81c-0.44,0.06-0.89,0.12-1.33,0.18c-1.34-9.85-2.68-19.7-4.02-29.56
		C313.83,532.44,314.31,532.3,314.8,532.15z"/>
	<path d="M277.82,132.73c0.63,9.04,1.26,18.07,1.88,27.11c-0.55,0.04-1.11,0.07-1.66,0.11c-0.57-8.98-1.14-17.97-1.71-26.95
		C276.83,132.91,277.33,132.82,277.82,132.73z"/>
	<path d="M279.71,543.45c-0.62,9.48-1.25,18.96-1.87,28.45c-0.47-0.02-0.94-0.05-1.42-0.07c0.54-9.49,1.08-18.98,1.62-28.47
		C278.6,543.39,279.15,543.42,279.71,543.45z"/>
	<path d="M461.35,325.19c-8.38,1.33-16.75,2.66-25.13,3.99c-0.08-0.47-0.16-0.95-0.25-1.42c8.36-1.38,16.73-2.77,25.09-4.15
		C461.16,324.13,461.26,324.66,461.35,325.19z"/>
	<path class="st0" d="M382.8,370.39c-15.5,12.96-30.79,24.53-51.46,27.22c0.31-1.68,0.64-3.41,0.87-4.61
		c-3.93,2.86-7.94,5.77-11.96,8.69c-0.46-0.5-0.92-0.99-1.37-1.49c12.71-14.29,23.1-29.58,21.75-49.44
		c2.21-0.66,4.04-1.21,6.52-1.95c0.63,3.23,1.29,6.67,2.2,11.37c1.26-2.82,2.04-4.56,3.17-7.07c0.47,2.32,0.8,3.94,1.13,5.57
		c0.49,0.47,0.98,0.95,1.46,1.42c0.48-1.69,0.96-3.38,1.25-4.37C365.59,360.85,373.77,365.39,382.8,370.39z"/>
	<path class="st0" d="M246.57,397.9c-22.42-5.2-32.95-10.85-51.62-27.61c8.68-4.69,17.21-9.28,25.87-13.96
		c0.55,0.7,1.34,1.71,2.78,3.55c0.45-2.86,0.78-4.92,1.41-8.89c1.52,4.12,2.42,6.58,3.88,10.54c0.87-4.97,1.44-8.26,2.02-11.55
		c2.06,0.14,3.8,0.26,5.97,0.41c-0.43,19.85,8.74,35.59,21.99,49.49c-0.31,0.51-0.63,1.03-0.94,1.54
		c-4.12-2.67-8.24-5.35-12.21-7.92C245.84,394.2,246.15,395.78,246.57,397.9z"/>
	<path class="st0" d="M325.26,321c6.5-5.44,12.71-10.81,19.17-15.87c1.16-0.91,3.71-1.24,4.98-0.59
		c7.68,3.94,15.18,8.24,22.53,13.88c-11.98-4.45-23.54-8.73-33.08,3.9c8.59-2.05,16.47-13.51,25.71-1.95
		C352.69,328.95,342.52,329.25,325.26,321z"/>
	<path class="st0" d="M208.92,321.17c-1.03-1.75-1.66-2.82-2.3-3.92c14-9.5,8.19-10.69,28.29,2.32c-9.29,4.32-18.5,8.6-27.72,12.87
		c-0.41,0.19-1.02,0.47-1.3,0.31c-10-5.83-13.87,4.02-20.1,7.8c-1.09,0.66-2.11,1.44-3.99,2.73
		C190.05,329.22,200.84,320.24,208.92,321.17z"/>
	<path class="st0" d="M221.97,308.26c5.8-4.86,10.21-6.07,15.54-0.65c4.54,4.61,10.26,8.06,15.47,12.02
		c0.49-0.57,0.98-1.14,1.47-1.71c-6.31-5.06-12.61-10.12-19.1-15.32c9.9-4.91,9.91-4.91,16.18,2.66c3.22,3.89,6.43,7.77,9.61,11.69
		c0.26,0.31,0.23,0.85,0.46,1.81c-7.06,2.48-13.59,6.23-21.24,0.23C235.04,314.81,228.61,312.05,221.97,308.26z"/>
	<path class="st0" d="M307.42,366.54c0.81-3.86,1.63-7.71,2.82-13.36c-3.74,2.05-5.81,3.19-8.55,4.69c-2.86-2.44-6.73-4.58-8.8-7.86
		c-1.66-2.63-2.17-7.01-1.15-9.88c0.58-1.63,5.25-1.93,8.14-2.56c1.22-0.27,2.62,0.4,3.88,0.21c8.79-1.32,11.57,1.22,10.09,9.88
		c-1.12,6.57-2.75,13.06-4.15,19.59C308.94,367.01,308.18,366.77,307.42,366.54z"/>
	<path class="st0" d="M257.36,370.7c5.81,10.37,14.23,17.74,25.91,20.03c13.89,2.73,24.42-3.83,33.25-13.91
		c1.18-1.34,3.01-2.11,5.27-2.09c-7.04,10-14.85,18.91-28.25,21.57c1.11-1.45,1.73-2.27,2.34-3.07c-8.12-0.73-16.62,4.1-24.1-1.75
		c-5.12-4-10.01-8.4-14.43-13.15c-1.54-1.65-1.37-4.88-1.98-7.38C256.03,370.87,256.7,370.79,257.36,370.7z"/>
	<path class="st0" d="M318.36,302.07c-7.01,2.96-6.71,12.13-15.82,15.71c2.84-8.27,4.89-14.72,7.37-21c0.45-1.14,2.84-2.4,4.09-2.19
		c5.34,0.89,10.59,2.31,16.08,3.59c-7.83,12.92-14.82,19.75-20.15,19.25c1.48-2.76,2.83-5.32,4.22-7.85
		C315.53,307.06,316.96,304.57,318.36,302.07z"/>
	<path class="st0" d="M272.83,299.86c-0.27-1.95-0.55-3.9-0.9-6.43c2.41-0.17,4.57-0.33,7.23-0.52c1.34,7.86,2.59,15.17,3.84,22.48
		c-0.71,0.31-1.43,0.61-2.14,0.92c-1.8-2.6-3.6-5.21-5.4-7.81c-0.32,0.14-0.64,0.27-0.95,0.41c0.43,2.31,0.86,4.61,1.29,6.92
		c-0.61,0.37-1.22,0.75-1.83,1.12c-5.92-5.74-8.49-13.82-13.07-20.71C267.44,291.21,269.45,296.29,272.83,299.86z"/>
	<path class="st0" d="M256.82,385.42c20.62,18.99,42.3,20.19,64.63-1.09c-4.75,10.93-15.66,17.59-30.39,17.93
		C276.8,402.59,264.32,398.83,256.82,385.42z"/>
	<path class="st0" d="M315.09,373c-11.03,15.76-27.49,19.93-41.63,10.34c-1.27-0.86-1.7-2.98-1.9-5.3
		c12.26,11.1,23.63,6.44,34.81-0.85c2.7-1.76,4.99-4.14,7.47-6.24C314.25,371.64,314.67,372.32,315.09,373z"/>
	<path class="st0" d="M336.69,409.83c-14.91,1.43-29.81,2.86-44.72,4.29c-0.11-0.87-0.22-1.73-0.33-2.6
		c13.67-2.46,27.31-5.03,41.02-7.21c1.35-0.21,3.08,1.97,4.64,3.05C337.1,408.18,336.89,409,336.69,409.83z"/>
	<path class="st0" d="M342.46,303.2c-7.74,5.74-14.35,13.07-23.01,17.49c-0.62-0.68-1.25-1.36-1.87-2.04
		c5-6.03,9.62-12.47,15.26-17.84c1.6-1.53,6.19,0.07,9.41,0.24C342.31,301.77,342.38,302.49,342.46,303.2z"/>
	<path class="st0" d="M267.52,318.45c-7.59-5.03-11.72-13.37-18.37-19.81c5.82-3.73,9.2-2.7,11.83,2.85
		c2.5,5.29,5.73,10.24,8.64,15.33C268.92,317.36,268.22,317.91,267.52,318.45z"/>
	<path class="st0" d="M292.28,292.42c1.87,0.12,3.85,0.25,6.85,0.45c-1.49,8-2.89,15.5-4.28,23.01c-0.85-0.06-1.71-0.13-2.56-0.19
		C292.28,308.24,292.28,300.78,292.28,292.42z"/>
	<path class="st0" d="M255.75,406c-5.02,6.21-10.64,5.46-12.58,1.61c-5.86-0.8-10.71-1.46-15.55-2.13c0.1-0.81,0.19-1.62,0.29-2.44
		C237.41,397.54,245.38,406.53,255.75,406z"/>
	<path class="st0" d="M281.9,293.25c4.79-1.48,7.21-1.53,7.01,3.26c-0.26,6.23-0.06,12.47-0.06,18.71c-0.93,0.07-1.86,0.14-2.8,0.21
		C284.68,308.09,283.31,300.75,281.9,293.25z"/>
	<path class="st0" d="M361.25,326.06c9.08-4.38,12.84-2.12,20.59,12.02C374.9,334.03,368.39,330.23,361.25,326.06z"/>
	<path class="st0" d="M297.75,315.56c1.26-6.8,2.32-13.66,3.98-20.36c0.26-1.07,3.19-1.49,6.7-2.97c-3.26,9.37-5.78,16.61-8.3,23.85
		C299.34,315.9,298.55,315.73,297.75,315.56z"/>
	<path class="st0" d="M189.36,352.23c5.79-4.82,11.42-9.85,17.47-14.31c1.77-1.31,4.75-0.98,7.17-1.41
		c0.24,0.74,0.48,1.47,0.72,2.21c-8.5,4.46-16.99,8.91-25.5,13.36C189.21,352.08,189.36,352.23,189.36,352.23z"/>
	<path class="st0" d="M348.97,330.6c6.92-5.29,12.12-3.13,17.12,2.17C359.82,336.83,354.57,334.38,348.97,330.6z"/>
	<path class="st0" d="M228.53,399.16c-6.98,7.06-11.07-0.7-17.17-1.37c1.74-2.08,2.91-3.47,4.13-4.92
		C219.69,394.89,223.58,396.77,228.53,399.16z"/>
	<path class="st0" d="M349.79,398.64c5.79-1.25,9.88-8.15,16.3-2.51C357.9,403.12,354.49,403.83,349.79,398.64z"/>
	<path class="st0" d="M272.08,369.38c-1.66-2.48-3.95-4.7-3.53-5.49c1-1.89,3.52-4.51,4.99-4.26c1.99,0.34,3.57,3.08,5.32,4.79
		C276.95,365.81,275.05,367.21,272.08,369.38z"/>
	<path class="st0" d="M272.94,370.82c10.4,9.64,19.85,6.8,29.8,1.95C296.22,382.65,281.02,382.19,272.94,370.82z"/>
	<path class="st0" d="M183.7,346.26c5.88-3.72,8.75-11.84,18.05-10.58c-5.67,4-11.35,8-17.02,12
		C184.38,347.2,184.04,346.73,183.7,346.26z"/>
	<path class="st0" d="M350.43,404.17c-8.5,3.85-8.5,3.85-12.93-0.67C342.06,401.5,346.23,397.55,350.43,404.17z"/>
	<path class="st0" d="M242.8,325.76c-4.38,0.69-8.76,1.38-13.14,2.07c-0.18-1.15-0.37-2.3-0.55-3.45c4.47-0.81,8.94-1.61,13.42-2.42
		C242.62,323.23,242.71,324.49,242.8,325.76z"/>
	<path class="st0" d="M266.83,372.97c-0.51,0.17-1.99,0.66-3.48,1.16c-3.54-3.51-5.84-8.49,0.22-15.31
		c-0.24,3.57-0.94,6.39-0.44,8.98C263.49,369.64,265.46,371.16,266.83,372.97z"/>
	<path class="st0" d="M215.02,333.03c4.11-2.55,7.63-7.36,15.44-1.98c-5.93,1.7-10.37,2.98-14.81,4.25
		C215.44,334.54,215.23,333.78,215.02,333.03z"/>
</g>
</svg>
