<svg width="18" height="18" viewBox="0 0 18 18" fill="none" xmlns="http://www.w3.org/2000/svg">
<path d="M5.219 9.5216H6.97286V16.7419C6.97286 16.8845 7.08837 17 7.23092 17H10.2047C10.3472 17 10.4627 16.8845 10.4627 16.7419V9.55561H12.4789C12.61 9.55561 12.7203 9.45724 12.7353 9.32702L13.0415 6.66885C13.0499 6.59572 13.0267 6.52248 12.9778 6.46761C12.9288 6.4127 12.8587 6.38126 12.7852 6.38126H10.4628V4.71499C10.4628 4.2127 10.7333 3.95799 11.2667 3.95799C11.3428 3.95799 12.7852 3.95799 12.7852 3.95799C12.9278 3.95799 13.0433 3.84243 13.0433 3.69992V1.25997C13.0433 1.11742 12.9278 1.00191 12.7852 1.00191H10.6926C10.6778 1.00119 10.645 1 10.5967 1C10.2336 1 8.97152 1.07128 7.97456 1.98844C6.86994 3.0048 7.02349 4.22173 7.06019 4.43272V6.38121H5.219C5.07645 6.38121 4.96094 6.49672 4.96094 6.63928V9.26348C4.96094 9.40604 5.07645 9.5216 5.219 9.5216Z" fill="white"/>
</svg>
