<svg width="83" height="16" viewBox="0 0 83 16" fill="none" xmlns="http://www.w3.org/2000/svg">
<path d="M15.5008 11.5485C16.3857 11.5485 17.1031 10.8311 17.1031 9.94614C17.1031 9.06116 16.3857 8.34375 15.5008 8.34375C14.6158 8.34375 13.8984 9.06116 13.8984 9.94614C13.8984 10.8311 14.6158 11.5485 15.5008 11.5485Z" fill="white"/>
<path d="M42.1752 4.71094C39.2262 4.71094 36.8359 7.1013 36.8359 10.0504C36.8359 12.9994 39.2262 15.3898 42.1752 15.3898C45.1242 15.3898 47.5145 12.9994 47.5145 10.0504C47.5145 7.1013 45.1236 4.71094 42.1752 4.71094ZM42.1752 12.8369C40.6365 12.8369 39.3887 11.5891 39.3887 10.0504C39.3887 8.51158 40.6365 7.2638 42.1752 7.2638C43.714 7.2638 44.9617 8.51158 44.9617 10.0504C44.9617 11.5891 43.714 12.8369 42.1752 12.8369Z" fill="white"/>
<path d="M66.2299 4.71094C63.2809 4.71094 60.8906 7.1013 60.8906 10.0504C60.8906 12.9994 63.2809 15.3898 66.2299 15.3898C69.1789 15.3898 71.5692 12.9994 71.5692 10.0504C71.5692 7.1013 69.1789 4.71094 66.2299 4.71094ZM66.2299 12.8369C64.6912 12.8369 63.4434 11.5891 63.4434 10.0504C63.4434 8.51158 64.6912 7.2638 66.2299 7.2638C67.7687 7.2638 69.0164 8.51158 69.0164 10.0504C69.0164 11.5891 67.7693 12.8369 66.2299 12.8369Z" fill="white"/>
<path d="M7.78494 12.2314C7.27602 12.6484 6.626 12.8991 5.91679 12.8991C4.54937 12.8991 3.39925 11.9688 3.0648 10.7065H8.76877C8.76814 10.7084 8.76752 10.7097 8.76752 10.7116H11.2013C11.2372 10.4621 11.2567 10.2077 11.2567 9.94879C11.2567 6.99973 8.8664 4.60938 5.91742 4.60938C2.96843 4.60938 0.578125 6.99973 0.578125 9.94879C0.578125 12.8978 2.96843 15.2882 5.91742 15.2882C8.04948 15.2882 9.88866 14.0385 10.7446 12.2321H7.78494V12.2314ZM5.91679 6.99784C7.1639 6.99784 8.22962 7.77196 8.6617 8.86604H3.1725C3.60395 7.77196 4.66967 6.99784 5.91679 6.99784Z" fill="white"/>
<path d="M57.6133 4.21108C58.5 4.21108 59.2188 3.49226 59.2188 2.60554C59.2188 1.71883 58.5 1 57.6133 1C56.7266 1 56.0078 1.71883 56.0078 2.60554C56.0078 3.49226 56.7266 4.21108 57.6133 4.21108Z" fill="white"/>
<path d="M58.8843 5.02344H56.3359V15.0529H58.8843V5.02344Z" fill="white"/>
<path d="M54.5307 5.03013H52.7489V2.26562H50.1803V5.03013H48.3984V7.56158H50.1803V15.0526H52.7489V7.56158H54.5307V5.03013Z" fill="white"/>
<path d="M82.431 9.5774C82.4027 7.05729 80.3519 5.02344 77.8255 5.02344C77.093 5.02344 76.4014 5.19539 75.7867 5.49962V5.04863H73.2188V9.5774V9.9421V15.0453H75.7867V9.9421V9.63472C75.7867 9.63346 75.7867 9.63157 75.7867 9.63031C75.7867 8.5041 76.6993 7.59142 77.8255 7.59142C78.9517 7.59142 79.8644 8.5041 79.8644 9.63031C79.8644 9.63157 79.8644 9.63346 79.8644 9.63472V15.0459H82.4323V9.5774H82.431Z" fill="white"/>
<path d="M34.9932 9.39096C34.9895 6.97793 33.0325 5.02344 30.6189 5.02344C29.4121 5.02344 28.3199 5.51222 27.5282 6.30207C26.7365 5.51222 25.6443 5.02344 24.4375 5.02344C23.7931 5.02344 23.1815 5.1639 22.6304 5.41396V5.02344H20.0625V9.39096V9.39789V10.0259V15.0529H22.6304V10.0259V9.39789C22.6304 8.40017 23.4392 7.59079 24.4375 7.59079C25.4352 7.59079 26.2445 8.39954 26.2445 9.39789V15.0529H28.8125V9.39789C28.8125 8.40017 29.6212 7.59142 30.6195 7.59142C31.6172 7.59142 32.4266 8.40017 32.4266 9.39852V15.0535H34.9945L34.9932 9.39096Z" fill="white"/>
</svg>
